<svg xmlns="http://www.w3.org/2000/svg" viewBox="0 0 30 30">
  <circle cx="15" cy="15" r="15" fill="#006c35" />
  <path fill="#ffffff" d="M12 7.1H12l-.3.6V8h.3l.1-.2c0-.2-.1 0-.2-.1 0-.2.1-.3.3-.4L12 7zm2 0l-.1.2c0 .1-.3.3-.1.7.1.3.2.7.1 1.1l-.2.3c-.2.2-.3.2-.5.1 0 0-.2-.1-.2-.4V8c-.2-.2-.4-.2-.4 0-.4.3-.6.8-.7 1.3-.1.3-.2.2-.3.1-.2-.2-.2-1.6-.4-1.3-.4 1 .2 2.2.6 2 .3.2.4-.4.6-1 0-.2.1-.2.1 0 0 .7.1.9.3 1.1.5.4.8 0 .9 0l.3-.3h.3l.4.4c.2 0 .6 0 .7-.2l.2-.4h.3s-.2.1 0 .3h.1c.3-.1.4-.6.4-.6l-.1-.2-.2.2-.5-.1c0-.2 0-.5-.2-.7 0 0-.1-.3 0-.4h.3l-.4-.7h-.5v.4.5c.2.2.4.6.3 1 0 0-.1.2-.4.2 0 0-.2 0-.3-.7 0-.5 0-1.1-.2-1.4l-.1-.3zm-.6 0l-.2.3v.7c-.1.1.1.2.2 0l.1-.7v-.2zm2.4.1l-.1.2v.5l.3.4 1.2 1.7a17.7 17.7 0 01.2 4.3c.1 0 .4-.3.5-.7v-2-.6l1.3 2.4v-1l-1-1.8-.4-.7-.1-1c-.1-.5.2 0 .1-.2 0-.5-.3-.8-.7-1.3 0-.1 0-.2-.2 0V8l-.3-.2c-.2-.2-.2-.3-.5-.4l-.3-.2zm7.1.1l-.2.4v.8c-.5-.5.2 0 0-.5l-.7-.6c-.1 0-.2-.2-.2 0v.7A41.7 41.7 0 0123 9.8c0 1 0 1.8.2 2.7 0 .4-.2 1-.3 1h-.3l-.4-.6c-.2-.1-.3 0-.4 0-.4.4-.6 1-.8 1.4 0 .1-.2.2-.4 0-.5-.6-.2-1.6-.3-1.3-.4.5-.2 1.3-.1 1.4.1.3.2.5.5.6.3.2.5.1.6 0 .2-.3.2-1 .4-1 0-.3.2-.3.3-.2.1.2.3.3.4.3.2.2.5.3.8 0 .2 0 .3-.2.4-.4.2-.3 0-2 0-3l.6.8V14c0 .2.6-.5.6-.7v-.7l.8 1.3v-1l-.8-1.4-.2-1.1-.2-1v-.5h.2L24 7.3c0-.1-.2-.1-.4.1v.7l.4 2.2-.7-.9v-.1-.8h.1s.1 0 0-.2l-.5-1v-.1zm-18.3 0c-.1 0-.3 0-.2.2l.2.5v.4c.2 0 .3-.2.3-.4s0-.6-.3-.7zm20.9 0l-.1.2c-.1.1-.2.5-.1.8a43.3 43.3 0 01.4 5.6l-.5.6-.7.3c-.3.2-.3.4 0 .4.5 0 1 0 1.5-.7l.2-1c0-1.6 0-3.3-.2-4.5 0-.1-.1-.4 0-.4l.2-.1-.6-1-.1-.2zm-5.4 0v.2c-.2.4-.3.8-.2 1 .4 2 .7 3.7.7 5.5.2 0 .4-.4.4-.8V12l-.4-3c-.1-.5.3-.1.3-.4l-.7-1.1v-.1zm-13 0V7.7H7v-.2h-.1v.1l-.1.1h-.1v-.2h-.1l-.1.2.1.4c.3.1.7 0 .7-.4v-.1l-.1-.1zm3.4 0l-.2.2c-.2.1-.2.4 0 .5 0 0 .2.2 0 .3L9.2 9.4h.7l1-1.1V8c-.1 0-.1 0 0 0 .2-.2.1-.5 0-.7h-.3zm8.7 0v.2c-.2.2-.3.5-.3.8.3 1.7.3 3.2.5 4.8l-.1.5c-.4.4-1 1-1.6 1.2 0 0 .2.4.5.4.5 0 1-.3 1.3-1.1.1-.2.3-.5.3-.8a18.2 18.2 0 00-.3-4.6h.2c.1-.2-.2-.9-.4-1.2v-.1zm-13.5.1l-.1.2v.8l.2 1.2c0 .6-.3.3-.3 0V8.4l-.3-.1c-.1 0-.4.3-.5.8v.5c-.1.3-.3.5-.4 0-.1-.4-.2-1.3-.4-1 0 .6-.1 1.9.5 2 .7 0 .3-1.2.6-1.4 0-.2.1-.2.1 0v1c0 .4.3.5.4.6.2 0 .4 0 .4.2l.1 1.9s.5.1.5-1c0-.8-.2-1.4 0-1.5 0-.1.1-.1.2 0l.6.2c.4-.2.7-.4.7-.7 0-.4 0-.7-.2-1v-.3c0 .1.2.1.2 0-.1-.2-.2-.5-.4-.6-.2-.1-.4 0-.5.2 0 .3.1.7.4 1v.6h-.3L7 9.3v-.9l-.3-.4h-.3v1.1l.2.4c0 .1-.2.1-.2 0l-.2-1c0-.4 0-1-.2-1 0-.1 0-.2-.2-.2zm2.6 0h-.1c-.2.1-.3.3-.3.5l.5 3c0 .2 0 .4-.2.4-.3-.2-.3-.5-.7-.5-.3 0-.7.3-.7.6v.7c.2.3.5.3.7.2.2 0 .3-.3.4-.2 0 0 0 .6-.9 1-.5.3-.9.4-1.1 0-.2-.3 0-1.3-.4-1-1 2.5 2.4 2.8 2.7 0l.2-.1c0 2.6-2.5 2.8-3 2V13l-.2-.2c0-.1-.2 0-.3.4v.6c.1 2 3.3 1.2 3.9-.5.2-.8 0-1.5 0-1.6.4.4.8 0 1 0a.1.1 0 01.2 0c.2.1.6 0 .7-.3l.1-1-.3.2v.3h-.1c0 .1-.2.1-.2 0 0-.3-.4-.4-.6.2h-.4c0-.4 0-.5-.4-.3l-.2-2.1h.3l-.5-1.3h-.1zm9.9 0c-.1 0-.3.1-.2.3l.3.5v.5l.3-.5c0-.2-.1-.6-.4-.7zm-7.7.3l.1.1V8l-.2-.1v-.2zm14.3.4a.2.2 0 00-.2.3l.3.5v.6l.2-.6c0-.1 0-.7-.3-.8zm-8 .2l.1.1v.3l-.1-.2c-.2-.3 0-.2 0-.2zm1.9.9h-.1v.2h-.1v-.2h-.1v.1l-.1.1h-.1v-.2H18l-.1.2.1.4c.3.1.7 0 .7-.4v-.1l-.1-.1zm-8.3 0l-.1.1c-.3.1-.3.5-.2.7.1.2.3.1.3.1.3 0 .4-.4.4-.4l-.3.1h-.1v-.4-.1zm11.7.1c-.1 0-.2.1-.2.3v.2h-.2v-.1h-.4v.4c.1.3.6.7.8.7v-.7c0-.1 0-.2.2-.2h.1v-.5H22zm-9.7.8l-.1.1-.2.5.4 1 .2 1.3c-.3.5-.8 1-1.4 1.3h-.5a.3.3 0 01-.2-.3c.5-.3 1-.5 1.4-1.3v-1a1 1 0 00-.2-.5h.3l-.4-.7h-.5c-.1.1-.2.4 0 .7l.4.7v.4c0 .2-1 .9-1 1V13v-.5c-.3.2-.4.8-.4 1-.7.4-1.6.8-2 1.3-.3.4 1.7-.4 1.9-.5 0 0 0 .2.2.3.2.3.6.5 1 .4.7-.3 1.1-.8 1.5-1.3h.3c.3.6 1 1 2.1 1 .3-.2.1-.4 0-.4l-.6-.4c0-.2.1-.4.3-.5.7 0 1.4-.2 2-.4l.2-.7h.2l-.2-.2H15c.5-.1 1.4-.3 1.5-1.2 0-.4-.2-.7-.8-.8-.4 0-.7.4-.6.9l-.1.3c-.8.1-1.7.6-1.7 1 0 0-.2-.1-.1-.3 0-.6-.3-1.2-.6-1.8l-.2-.2zm2 .4v.2l-.2-.1v-.1H14v.1H14l-.1-.1c-.2 0-.2.1-.2.2 0 0 0 .3.2.4.2 0 .8 0 .7-.4v-.2h-.1zm8.4.3l-1.2.8v.5l1.2-.9v-.4zm-7.3.1h.2l.1.2c0 .1-.1.1-.2 0l-.1-.1zm-10 .2c-.6 0-1.5.8-1.5 1.2l1.9-.9c-.1-.1 0-.3-.4-.3zm2 .3V11.7H7.2v-.2l.2-.1zm15 .2a.2.2 0 00-.1.3l.2.6v.5s.3-.2.3-.5c0-.2 0-.8-.3-.9zm-12.8.6c-.1 0-.2 0-.1.2l.2.4v.4l.3-.4c0-.1-.1-.5-.3-.6h-.1zm3.8.5l1 .1c.2 0 .3.2.1.3-.2.1-.4.2-.4.5v.3h-.3c-.1-.2-.5-.4-.6-1a.2.2 0 01.2-.2zm-9.4.4v.1c-.4.6-.4 1.4-.2 1.7 0 .1.2.2.4.1.2 0 .3-.5.2-.7 0-.1 0-.1-.2 0-.1.3-.2 0-.2-.1v-.9-.2zm12.1.8l-.4.3v.1c0 .1 0 0 .1 0s.2 0 .2.2v.2h.2l.7-.2v-.3c-.2 0-.4 0-.5.2h-.2v-.5zm7.7.3h-.1l-.1.1.1.2s.1.1 0 .2l-.2.2v.2c.3 0 .8-.3.8-.3v-.1h-.2s-.1 0 0-.2v-.2l-.1-.1h-.2zm-3.2 6.5c-.4 0-.3.4-.1.6H9.8l-3-.1c.5.7 1.2.8 2.1.8h11.6c-.1.3 0 .7.2.8l.3-.1h1.7s.1.2.3.2c.3 0 .5-.1.5-.7 0 0 0-1-.7-.9l-.5.1h-1.4v-.5h-.1v-.2h-.1zM21 22h1.6v.4H22c0-.2-.4-.2-.4-.1h-.8V22z" />
</svg>