<svg xmlns="http://www.w3.org/2000/svg" style="display: none;">
  <symbol viewBox="0 0 28 19" fill="none" id="Hanger">
    <path d="M11.971 2.811c.34-1.203 1.629-2.031 3.046-1.76 1.03.199 1.858 1.012 2.02 1.986a2.359 2.359 0 0 1-.783 2.18l-2 1.313a.157.157 0 0 0-.073.13v1.99" stroke="#2D2D2D" stroke-linecap="round" />
    <path clip-rule="evenodd" d="m14.248 8.65 11.79 6.279c1.824.971.878 3.071-1.384 3.071H3.843c-2.263 0-3.209-2.1-1.384-3.071l11.79-6.28z" stroke="#2D2D2D" />
  </symbol>
  <symbol viewBox="0 0 512 512" id="Categories">
    <path fill="currentColor" stroke="none" stroke-linejoin="miter" stroke-width="1px" vector-effect="non-scaling-stroke" d="m11 96c-4 0-7 2-9 5-2 4-2 8 0 11 2 3 5 5 9 5l462 0c3 0 7-2 9-5 2-3 2-7 0-11-2-3-6-5-9-5z m-1 147c-6 0-10 5-10 11 0 6 5 10 11 10l482 0c4 0 8-2 10-5 2-3 2-8 0-11-2-3-6-5-10-5l-482 0c0 0 0 0-1 0z m1 147c-4-1-7 2-9 5-2 3-2 7 0 11 2 3 5 5 9 5l294 0c4 0 7-2 9-5 2-4 2-8 0-11-2-3-5-6-9-5z" />
  </symbol>
  <symbol viewBox="0 0 60 60" id="UpArrow">
    <path fill="none" stroke="currentColor" stroke-linecap="round" stroke-linejoin="round" stroke-width="1px" vector-effect="non-scaling-stroke" d="M30.144 44.509l.135-27.742M39.352 24.609l-8.996-7.842a.205.205 0 0 0-.27 0l-8.995 7.842" />
  </symbol>
  <symbol viewBox="0 0 26 16" id="Burger">
    <path d="M0 19.9v-6.6h1.3L3.2 19 5 13.4h1.2v6.5h-.8v-5.5l-2 5.5h-.7L.8 14.3v5.6zM7.8 19.9v-6.6h4.7v.8H8.6v2h3.7v.8H8.6v2.2h4.1v.8zM14.1 19.9v-6.6h.9l3.4 5.2v-5.2h.8v6.6h-.9l-3.4-5.2v5.2zM25.1 13.3h.9v3.8c0 1.9-.8 2.9-2.5 2.9s-2.6-.6-2.6-2.9v-3.8h.9v3.8c-.2 1.7.7 2.1 1.5 2.1 1.6 0 1.8-1 1.8-2v-3.9z" />
    <path fill="none" stroke="currentColor" stroke-linecap="round" stroke-linejoin="round" stroke-width="1px" vector-effect="non-scaling-stroke" d="M.5 7h25M.5.5h25" />
  </symbol>
  <symbol viewBox="0 0 26 20" id="BurgerAr">
    <g fill="#000">
      <path d="M4.4 15.8v2.6c0 .2 0 .4.2.5l.5.2h.2l.3.1.1.3v.3H4.5l-.4-.1a.7.7 0 01-.3-.3.9.9 0 01-.2-.5l-.4.1h-1c-.3 0-.5 0-.6-.2-.2 0-.4-.2-.5-.5l-.2-.8c0-.2 0-.5.2-.8 0-.2.2-.4.5-.6l.6-.2.7-.1h1.4zm-.7.7H3l-.8.2c-.2.2-.3.5-.3.8 0 .2 0 .4.2.6l.8.2h.4c.2 0 .4 0 .5-.2v-1.6zM2 14.1l.1-.4h.7l.2.4c0 .3-.3.5-.5.5-.1 0-.3 0-.4-.2l-.1-.3zM3.2 14.1l.1-.4h.8v.4c0 .3-.2.5-.4.5l-.4-.2-.1-.3z" />
      <path d="M8.6 16.5l.6.1c.2 0 .4.2.5.4l.4.5.1.8v.3l.3.4.6.1.2.1.1.3v.3H11a2 2 0 01-.7 0l-.4-.6c-.1.3-.3.5-.5.6l-.9.2c-.3 0-.6 0-.8-.2-.4 0-.7-.2-1-.5l-.2.3-.3.2h-1H5v-.3-.4H6l.3-.1.2-.3.2-.4.5-1 .5-.5.4-.3h.6zm0 .7c-.4 0-.6.1-.8.3a3 3 0 00-.6 1.2c.2.1.4.3.7.3l.6.2c.3 0 .5 0 .7-.2.2-.2.3-.5.3-.8v-.4l-.3-.3-.3-.2a1 1 0 00-.4-.1z" />
      <path d="M11 19.8h-.2l-.1-.3v-.3l.4-.1h1.4v-2.7h.8v3.4H11zM13.8 15.3h-2v-.6h.4a.8.8 0 01-.2-.5v-.5l.3-.3.3-.2H13.5v.5H13l-.4.1-.1.4.1.4.5.2h.6v.5zM16.5 19.5v.3h-1.1l-.5-.2a1 1 0 01-.2-.4c-.1-.2-.2-.4-.1-.6v-5.3h.8v5.6c.2.2.4.2.6.2h.1l.4.1v.3z" />
      <path d="M18.8 16.2c.3 0 .6 0 .8.2l.5.4.3.7.1.6v1h.7l.3.1v.6h-5.6c-.1-.1-.2-.2-.1-.3V19h1.3l-.1-.4V18v-.7l.4-.6.6-.4c.3-.2.5-.2.8-.2zm0 .7c-.3 0-.6.1-.8.3-.2.2-.3.5-.3.8 0 .3 0 .6.3.8.3.2.5.3.9.3h.8v-1.4l-.1-.4-.3-.3-.5-.1zM17.6 14.7c0-.2.2-.4.4-.4l.4.1.1.3c0 .3-.2.5-.5.5h-.3v-.5h-.1zM18.8 14.7c0-.2.2-.4.5-.4l.3.1.2.3c0 .3-.2.5-.5.5h-.4v-.5z" />
      <path d="M21.2 19.8H21v-.3-.3l.3-.1h1.5v-5.8h.7v6.5h-2.2zM25.5 13.3v6.5h-.8v-6.5z" />
    </g>
    <path fill="none" stroke="currentColor" stroke-linecap="round" stroke-linejoin="round" stroke-width="1px" vector-effect="non-scaling-stroke" d="M.5 7h25M.5.5h25" />
  </symbol>
  <symbol viewBox="0 0 26 26" id="Globe">
    <g fill="none" stroke="currentColor" stroke-linecap="round" stroke-linejoin="round" stroke-width="1px">
      <circle vector-effect="non-scaling-stroke" cx="13" cy="13" r="12.5" />
      <path vector-effect="non-scaling-stroke" d="M13 25.5c7-6 7-19 0-25-7.5 6-7.5 19 0 25z" />
      <path vector-effect="non-scaling-stroke" d="M2.5 7h21M2.5 19h21M.5 13h25" />
    </g>
  </symbol>
  <symbol viewBox="0 0 26 19" id="Sort">
    <path fill="none" stroke="currentColor" stroke-linecap="round" stroke-linejoin="round" stroke-width="1px" vector-effect="non-scaling-stroke" d="M6.5 17.5V1m-6 4.5l6-4.9a.1.1 0 010 0l6 4.9m7-4v16.9m-6-4.9l5.9 4.9h.2l5.9-4.9" />
  </symbol>
  <symbol viewBox="0 0 24 22" id="Filter">
    <path fill="none" stroke="currentColor" stroke-linecap="round" stroke-linejoin="round" stroke-width="1px" vector-effect="non-scaling-stroke" d="M9 3h14.5M.5 3h3M6 .5a2.5 2.5 0 110 5 2.5 2.5 0 010-5zM6 16.5a2.5 2.5 0 110 5 2.5 2.5 0 010-5zM20.5 11h3M.5 11h15M18 8.5a2.5 2.5 0 110 5 2.5 2.5 0 010-5zM9 19h14.5M.5 19h3" />
  </symbol>
  <symbol viewBox="0 0 87 83" id="RatingStar">
    <path fill="currentColor" d="m43.5 0 10.3 31.7H87L60.1 51.3 70.4 83 43.5 63.4 16.6 83 27 51.3 0 31.7h33.2L43.5 0Z" />
  </symbol>
  <symbol viewBox="0 0 87 83" id="RatingStarHalf">
    <path fill="currentColor" fill-rule="evenodd" clip-rule="evenodd" d="M54.3 31.7 44 0 33.7 31.7H.5l26.9 19.6L17 83l27-19.6L70.9 83 60.6 51.3l26.9-19.6H54.3Zm21 4h-24L44 13v45.5l19.3 14-7.4-22.7 19.3-14.1Z" />
  </symbol>
  <symbol viewBox="0 0 35 36" id="OunassLetterO">
    <path fill="#000" d="M28.4 28.5v.1l-.2.2C21 36 11.8 32 7.4 27.6a17.6 17.6 0 0 1-5-9.6c-.6-4.2.8-8.2 4-11.5A13.3 13.3 0 0 1 18 2.4c3.5.5 7 2.3 9.6 5 2.7 2.6 4.4 6 5 9.6a12.6 12.6 0 0 1-3.7 11.2l-.2.2-.2.1ZM18.4 0h-.2C13.4 0 8.8 2 5.4 5.4a18.4 18.4 0 0 0-4.2 19.3c.8 2.1 2 4 3.5 5.6 3.2 3.1 7.4 4.9 11.9 4.8h.1c4.8 0 9.4-2 12.7-5.4a17.6 17.6 0 0 0 .8-25A17.7 17.7 0 0 0 18.4 0Z" />
  </symbol>
  <symbol viewBox="0 0 512 512" id="Share">
    <path stroke="currentColor" stroke-linecap="round" stroke-linejoin="round" stroke-width="1px" d="m404 329c-28 0-55 13-72 35l-141-78c4-10 5-20 5-30 0-11-1-21-5-31l141-78c17 23 44 36 72 36 51 0 92-41 92-92 0-50-41-91-92-91-50 0-91 41-91 91 0 11 2 21 5 31l-140 78c-18-23-44-36-73-36-50 0-91 41-91 92 0 50 41 91 91 91 29 0 56-13 73-36l140 79c-3 9-5 20-5 30 0 50 41 92 91 92 51 0 92-41 92-92 0-50-41-91-92-91z m0-300c35 0 63 28 63 63 0 34-28 62-63 62-34 0-62-28-62-62 0-35 28-63 62-63z m-299 289c-34 0-63-28-63-62 0-35 29-63 63-63 35 0 63 28 63 63 0 34-28 62-63 62z m299 165c-34 0-62-28-62-63 0-35 28-63 62-63 35 0 63 28 63 63 0 35-28 63-63 63z" />
  </symbol>
  <symbol viewBox="0 0 20 10" id="DownChevron">
    <path d="M0 0L10 10L20 0" stroke="currentColor" stroke-linejoin="round" fill="none" />
  </symbol>
  <symbol viewBox="0 0 16 16" id="Minus">
    <line fill="none" stroke="currentColor" stroke-width="1px" stroke-linecap="round" stroke-linejoin="round" vector-effect="non-scaling-stroke" x1="0" y1="8" x2="16" y2="8" />
  </symbol>
  <symbol viewBox="0 0 16 16" id="Plus">
    <g fill="none" stroke="currentColor" stroke-width="1px" stroke-linecap="round" stroke-linejoin="round">
      <line vector-effect="non-scaling-stroke" x1="0" y1="8" x2="16" y2="8" />
      <line vector-effect="non-scaling-stroke" x1="8" y1="0" x2="8" y2="16" />
    </g>
  </symbol>
  <symbol viewBox="0 0 38 37" id="Email">
    <g stroke-linecap="round" stroke-linejoin="round" fill="none" stroke="currentColor" stroke-width="1px">
      <path vector-effect="non-scaling-stroke" d="M1.71 13.4L14.02 3c1.64-1.333 3.295-2 4.967-2 1.671 0 3.344.667 5.019 2l12.286 10.4A2 2 0 0137 14.928V34a2 2 0 01-2 2H3a2 2 0 01-2-2V14.929a2 2 0 01.71-1.528z" />
      <path vector-effect="non-scaling-stroke" d="M2 14l12.005 9.5c1.66 1.333 3.326 2 4.995 2 1.67 0 3.34-.667 5.013-2L36 14M1.998 35.001L12.5 23.5M36.001 35.005L25.5 23.5" />
      <path vector-effect="non-scaling-stroke" d="M8.5 19v-6a.583.583 0 01.16-.34c.087-.087.2-.14.34-.16h20a.622.622 0 01.355.155c.08.08.128.194.145.345v6" />
      <path vector-effect="non-scaling-stroke" d="M13.5 19.5h11M13.5 16.5h11" />
    </g>
  </symbol>
  <symbol viewBox="0 0 924 145" id="ChanelLogo">
    <path fill="#161413" fill-rule="evenodd" d="M133 107.1h1A70.5 70.5 0 0172 145c-40.2 1-72-31.5-72-71.6A71.8 71.8 0 0170.6 1a70.3 70.3 0 0162.1 38.5l.8 1.3c.1.2-22.5 16.5-22.7 16.2l-.5-1A42 42 0 0070.6 29a44 44 0 00-43.3 44.3A44 44 0 0070.6 118a43.3 43.3 0 0039-25.6c.4-.5.5-1 .7-1.4l22.8 16.2zM162.4 2.2h27.2v50.7h71.3V2.2h27.4v141h-27.4v-62h-71.3v62h-27.2V2.2zm509.3 141V2.2h98.6v28.5h-71v28.1h65.6V87h-65.7v28.2h81.2v28H671.6zm147.2 0V2.2h27.6v113h76.7v28H818.8zm-295.4 0h-27.6V2.2h38.3L594.5 87V2.2H622v141h-21.8L523.4 37v106.3zM392 30.7L368 87H417l-25.2-56.3zm-36.4 84.5l-12.6 28h-32.7l62.5-141h38.2l63 141h-32.7l-12.7-28h-73z" />
  </symbol>
  <symbol viewBox="0 0 12 9" id="Tick">
    <path fill="none" stroke="currentColor" stroke-width="1px" stroke-linecap="round" stroke-linejoin="round" d="M.5 5.5l3 3M11.5.5l-8 8" />
  </symbol>
  <symbol viewBox="0 0 26 19" id="LeftArrow">
    <g fill="none" stroke="currentColor" stroke-width="1px" stroke-linecap="round" stroke-linejoin="round">
      <path d="m 8.5 0.5 l -8 9 l 8 9 m 0 0" />
      <path d="m 1 9.5 h 26" />
    </g>
  </symbol>
  <symbol viewBox="0 0 18 20" id="Apple">
    <path fill="#131A1F" d="M13.365 4.682c1.429 0 2.944.744 4.024 2.029-3.537 1.85-2.962 6.672.611 7.962-1.558 3.345-3.49 5.31-5.033 5.324-1.372.012-1.724-.853-3.586-.843-1.861.01-1.999.849-3.621.846-1.622-.003-5.066-2.55-5.745-8.714-.544-4.944 3.723-6.602 5.33-6.602 1.636 0 2.664.856 4.017.856 1.313 0 2.111-.858 4.003-.858zM12.96 0c.32 2.184-1.565 4.812-4.25 4.812-.422-2.406 2-4.676 4.25-4.812z" />
  </symbol>
  <symbol viewBox="0 0 26 22" id="Backward">
    <g fill="none" stroke="currentColor" stroke-width="1px" stroke-linecap="round" stroke-linejoin="round">
      <path d="M19.2 8.9l-4.8 2.7-4.1-1.2" />
      <path d="M17 21.5c5.8-1.2 9.4-6.9 8.2-12.6A10.5 10.5 0 0012.7.7C7.1 2 1.7 8.1 5.5 17.5" />
      <path d="M7.5 12.5l-2 5-5-3" />
    </g>
  </symbol>
  <symbol viewBox="0 0 20 20" id="Search">
    <g fill="none" stroke="currentColor" stroke-width="1px" stroke-linecap="round" stroke-linejoin="round">
      <circle cx="8" cy="8" r="7.5" />
      <path d="M13.4 13.4l6.1 6.1" />
    </g>
  </symbol>
  <symbol viewBox="0 0 52.966 52.966" id="ZoomIn">
    <g fill="currentColor">
      <path d="M28.983,20h-6v-6c0-0.552-0.448-1-1-1s-1,0.448-1,1v6h-6c-0.552,0-1,0.448-1,1s0.448,1,1,1h6v6c0,0.552,0.448,1,1,1 s1-0.448,1-1v-6h6c0.552,0,1-0.448,1-1S29.535,20,28.983,20z" />
      <path d="M51.704,51.273L36.845,35.82c3.79-3.801,6.138-9.041,6.138-14.82c0-11.58-9.42-21-21-21s-21,9.42-21,21s9.42,21,21,21 c5.083,0,9.748-1.817,13.384-4.832l14.895,15.491c0.196,0.205,0.458,0.307,0.721,0.307c0.25,0,0.499-0.093,0.693-0.279 C52.074,52.304,52.086,51.671,51.704,51.273z M2.983,21c0-10.477,8.523-19,19-19s19,8.523,19,19s-8.523,19-19,19 S2.983,31.477,2.983,21z" />
    </g>
  </symbol>
  <symbol viewBox="0 0 60 60" id="Left2x">
    <path fill-rule="evenodd" clip-rule="evenodd" d="M39.585 9.07a1.25 1.25 0 0 0-1.6-.059l-.165.154-17.16 19.114a2.574 2.574 0 0 0-.202 3.187l.202.255 17.16 19.114a1.25 1.25 0 0 0 1.995-1.49l-.135-.18-17.16-19.114L22.5 30l.02-.05 17.16-19.115a1.25 1.25 0 0 0-.095-1.765z" fill="currentColor" />
  </symbol>
  <symbol viewBox="0 0 60 60" id="Right2x">
    <path fill-rule="evenodd" clip-rule="evenodd" d="M20.415 9.07a1.25 1.25 0 0 1 1.6-.059l.165.154 17.16 19.114c.807.898.874 2.218.202 3.187l-.202.255-17.16 19.114a1.25 1.25 0 0 1-1.995-1.49l.135-.18 17.16-19.114.02-.051-.02-.05-17.16-19.115a1.25 1.25 0 0 1 .095-1.765z" fill="currentColor" />
  </symbol>
  <symbol viewBox="0 0 159 55" id="OunassLogoAr">
    <path fill="currentColor" d="M62.2 20.8v9.5c0 5.8-3.4 9.4-8.8 9.4-4.2 0-7.2-1.9-8.5-5.2-1.2 3.6-4.1 5.7-8.3 5.7-2.5 0-4.6-.7-6.1-2l-.3-.1v2.2c0 4.7-3.8 9.7-7.6 12C16.9 56 9.3 56.2 4 50.9A14.4 14.4 0 010 40.4a15.9 15.9 0 016.7-12.6l.3-.2.7 1A12 12 0 002 40.3c1 7 8 13 15.1 12.6 1.6-.1 3.2-.6 4.5-1.4 1-.6 2-1.5 3-2.4 2.5-2.7 2.7-4.8 2.7-8.2V22.2l3-1v9.9c0 5 2.3 7.7 6.7 7.7 4.3 0 7-3 7-7.8v-9.3l2.4-.7.7-.2v9.8c0 5 2.4 7.8 6.7 7.8 4.3 0 7-3 7-7.9v-9.2l1.4-.5zm11.4-10.6V31c0 1.1.1 2.2.5 3.3.9 2.8 3.1 3.8 5.9 4h57a7.3 7.3 0 002-.4 6.5 6.5 0 004.2-4.7c.3-1.1.4-2.3.4-3.4v-8.6l.3-.1h.3c.2-.2.4-.2.7-.3V31a11 11 0 01-.7 4 7.6 7.6 0 01-5.6 5l-2 .3h-57a8.6 8.6 0 01-8.6-6.7c-.3-1.1-.4-2.2-.4-3.3V11l3-1zm85.2 0v30h-3V11.1l3-1zm-14.7 4c.5 0 1 .2 1.4.5.3.4.5.9.5 1.4 0 .5-.2 1-.5 1.3l-.1.2c-.4.4-.8.7-1.3.8h-.2c-.5 0-1-.3-1.4-.7a2.2 2.2 0 01-.5-1.5c0-.5.2-1 .5-1.3l.1-.1c.4-.3.8-.5 1.3-.5h.2zm14.6-9h.1l-.3.5-.3-.1h-.1l-.8-.2c-.3 0-.6.2-.8.4a1 1 0 00-.3.8c0 .3.1.6.5.8l.8.2h.2l1.3-.4-.2.9-4.4 1.4.1-.8 1.1-.4-.6-.6-.3-.9c0-2 2.5-2.5 4-1.6zM157.4 0c.4 0 .7.2 1 .4.2.3.4.7.4 1 0 .4-.2.7-.4 1l-.1.1h-.1l-.1.2-.3.1h-.1L154.4 4l.1-.7 1.7-.6c-.3-.3-.4-.7-.4-1.1 0-.4.2-.7.4-1 .3-.3.7-.5 1-.5h.2z" />
  </symbol>
  <symbol viewBox="0 0 24 24" id="Star">
    <path fill="none" stroke="currentColor" stroke-width="1px" stroke-linecap="round" stroke-linejoin="round" d="M12 19.6l-7.7 3.9c-.3.1-.6-.2-.5-.6l2.5-7.7L.6 9.8C.4 9.5.6 9 .8 9l7.5-1.6L11.8.6h.7l3.2 6.9L23.2 9c.3 0 .4.4.2.7l-5.7 5.4 1.8 7.7c0 .4-.4.7-.7.6L12 19.6z" />
  </symbol>
  <symbol viewBox="0 0 24 24" id="StarFilled">
    <path fill="currentColor" stroke="none" d="M12 19.6l-7.7 3.9c-.3.1-.6-.2-.5-.6l2.5-7.7L.6 9.8C.4 9.5.6 9 .8 9l7.5-1.6L11.8.6h.7l3.2 6.9L23.2 9c.3 0 .4.4.2.7l-5.7 5.4 1.8 7.7c0 .4-.4.7-.7.6L12 19.6z" />
  </symbol>
  <symbol viewBox="0 0 22 22" id="Package">
    <g fill="none" stroke="currentColor" stroke-width="1px" stroke-linecap="round" stroke-linejoin="round">
      <path d="M.5 21.5h16.3V5H.5zM18 17.4l2.2-2M18 15l2.2-2" />
      <path d="M11.7 5.5v5H5v-5" />
      <path d="M16.8 21.5l4.7-4.5V.5H5.6L.6 5" />
      <path d="M16.9 5L21.4.6" />
    </g>
  </symbol>
  <symbol viewBox="0 0 15 16" id="Bag">
    <g fill="none" stroke="currentColor" stroke-width="1px" stroke-linecap="round" stroke-linejoin="round">
      <path d="M4.5 15.5c-3.2 0-3.2 0-3.2-2.6L1 4.3c0-.2.1-.3.3-.3h12.4c.2 0 .3.1.3.3l-.3 8.6c0 2.6-.2 2.6-3.2 2.6h-6z" />
      <path d="M5 4V3C5 1.6 6.1.5 7.5.5S10 1.6 10 3v1" />
    </g>
  </symbol>
  <symbol viewBox="0 0 13 16" id="Person">
    <g fill="none" stroke="currentColor" stroke-width="1px" stroke-linecap="round" stroke-linejoin="round">
      <path d="M12.5 15.5H.5v-2.6c0-1.9 2.7-3.4 6-3.4s6 1.5 6 3.4v2.6z" />
      <path d="M10 4a3.5 3.5 0 11-7 0 3.5 3.5 0 017 0z" />
    </g>
  </symbol>
  <symbol viewBox="0 0 186 36" id="OunassLogo">
    <path fill="currentColor" d="M64.3 24.2c0 6-3.2 9.6-8.3 9.6-5.1 0-7.9-3.3-7.9-9.1V1.4l-3.4 1V24c0 7.1 4 11.3 10.8 11.3 6.4 0 10.3-4.2 10.3-11v-23l-1.5.6v22.3zM95 1.8v26.7l-16-27.1H79l-1.5.5v32.9l1.5-.5V7.7l16.2 27.1 1.6-.5v-33h-.1zM28.8 28.9l-.2.2c-7.2 7.3-16.4 3.3-20.8-1.1a17.6 17.6 0 01-5-9.6C2 14 3.5 10 6.8 6.8a13.3 13.3 0 0111.5-4c3.4.4 7 2.3 9.6 5a17.6 17.6 0 015 9.6 12.6 12.6 0 01-3.7 11.2l-.2.1v.1l-.2.1zM18.8.4h-.3A18.2 18.2 0 005.8 5.8 18.4 18.4 0 00.4 18.6a16.8 16.8 0 004.7 12 16.8 16.8 0 0011.9 5A18.2 18.2 0 0029.9 30 18.4 18.4 0 0035.5 17a16.9 16.9 0 00-4.8-12A16.7 16.7 0 0018.8.4zm130 15.6c-5.8-2.7-7.3-4.2-7.3-7.5s2.6-6 6.2-6a7 7 0 016.7 4.8l.2.7 2.4-1.8-.2-.3C155.5 3 152 1 148.1 1c-5.2 0-9.2 3.6-9.2 8.4 0 4 2.5 6.9 8.6 9.6 5.9 2.6 7.7 4.4 7.7 7.7 0 3.8-3 6.6-7.2 6.6-3.4 0-6.8-2.4-7.7-5.2l-.2-.6-2.4 1.7.2.4c1.7 3 5.9 5.1 9.8 5.1 6 0 10.2-4 10.2-9.2 0-4-2.3-6.5-9-9.6m27.6 0c-5.9-2.7-7.3-4.2-7.3-7.6s2.6-5.9 6.1-5.9a7 7 0 016.7 4.8l.2.7 2.4-1.8-.1-.3c-1.3-2.9-5-4.8-8.8-4.8-5.2 0-9.1 3.6-9.1 8.4 0 4 2.4 6.9 8.6 9.6 5.8 2.6 7.6 4.4 7.6 7.7 0 3.8-2.9 6.6-7.2 6.6-3.3 0-6.7-2.4-7.7-5.2l-.2-.6-2.4 1.7.2.4c1.7 3 6 5.1 9.9 5.1 5.9 0 10.2-4 10.2-9.2 0-4-2.3-6.5-9.1-9.6m-53.6 6h-10.7l5.3-15.5 5.4 15.6zm-3.7-20.7l-1.7.6-11.3 32.7v.1l1.9-.6 3.6-10.6h11.7l4 11.3 3.2-1-11.4-32.4z" />
  </symbol>
  <symbol viewBox="0 0 16 16" id="HeartFilled">
    <path fill="currentColor" d="M14.86 8.13a4.55 4.55 0 00-1.1-5.92C11.98.91 9.14 1.27 8 4.31 6.95 1.29 4.02.92 2.24 2.22a4.55 4.55 0 00-1.1 5.92C1.67 9 8 15.5 8 15.5s6.33-6.5 6.86-7.37z" />
  </symbol>
  <symbol viewBox="0 0 16 16" id="Heart">
    <path fill="#fff" stroke="currentColor" stroke-width="currentStrokeWidth" stroke-linecap="round" stroke-linejoin="round" d="M14.86 8.13a4.55 4.55 0 00-1.1-5.92C11.98.91 9.14 1.27 8 4.31 6.95 1.29 4.02.92 2.24 2.22a4.55 4.55 0 00-1.1 5.92C1.67 9 8 15.5 8 15.5s6.33-6.5 6.86-7.37z" />
  </symbol>
  <symbol viewBox="0 0 23 22" id="HeartEmpty">
    <path fill="none" stroke="#000" stroke-linejoin="round" d="M5.596 1.122a4.896 4.896 0 0 0-2.076.921C.925 3.974.233 7.836 1.92 10.688c.13.22.346.483.648.834l1.168 1.316 3.114 3.423a401.343 401.343 0 0 0 4.369 4.607c.13.176.39.176.562 0l4.369-4.607 3.114-3.423c.476-.483.865-.965 1.168-1.316s.519-.615.648-.834c1.687-2.852.995-6.714-1.6-8.645s-6.099-1.097-7.785 1.8c-.087.087-.13.307-.217.438a4.591 4.591 0 0 0-.173-.438c-1.254-2.194-3.59-3.16-5.709-2.721z" />
  </symbol>
  <symbol viewBox="0 0 30 30" id="Twitter">
    <path
      fill="currentColor" d="m26.37 26-8.795-12.822.015.012L25.52 4h-2.65l-6.46 7.48L11.28 4H4.33l8.211 11.971-.001-.001L3.88 26h2.65l7.182-8.322L19.42 26h6.95zM10.23 6l12.34 18h-2.1L8.12 6h2.11z"
    />
  </symbol>
  <symbol viewBox="0 0 14 26" id="Facebook">
    <path fill="currentColor" d="M13.5.7v4c-2.3-.3-3.7 0-4.1.5-.5.6-.6 2-.5 4.5h4.4l-.5 4.4H8.9v11.4H4.3V14.1H.5V9.7h3.8V6.4c0-1.9.6-5.7 5.8-5.9 1 0 2.1 0 3.4.2z" />
  </symbol>
  <symbol viewBox="0 0 25 25" id="Instagram">
    <g fill="currentColor">
      <circle cx="19.17" cy="5.82" r="1.5" />
      <path d="M12.5 6.07a6.4 6.4 0 10-.01 12.81 6.4 6.4 0 00.01-12.81zm0 10.56a4.16 4.16 0 110-8.32 4.16 4.16 0 010 8.32z" />
      <path d="M17.65.08c-2.3-.1-8-.1-10.3 0-2.02.1-3.8.58-5.24 2.02C-.3 4.5 0 7.73 0 12.47c0 4.85-.27 8.01 2.1 10.38 2.41 2.4 5.7 2.09 10.4 2.09 4.81 0 6.47 0 8.18-.66 2.31-.9 4.06-2.96 4.23-6.67.1-2.3.1-7.98 0-10.28-.2-4.38-2.56-7.03-7.27-7.25zm3.64 21.18c-1.57 1.57-3.76 1.43-8.82 1.43-5.2 0-7.3.08-8.82-1.45-1.75-1.74-1.43-4.54-1.43-8.79 0-5.74-.6-9.88 5.18-10.17 1.33-.05 1.72-.06 5.06-.06l.05.03c5.55 0 9.9-.58 10.16 5.18.06 1.32.08 1.71.08 5.04 0 5.14.1 7.24-1.46 8.79z" />
    </g>
  </symbol>
  <symbol viewBox="0 0 27 22" id="LinkedIn">
    <path fill="currentColor" d="M15.032 6.312c4.195 0 4.968 2.764 4.968 6.352V20h-.005V20h-4.137v-6.647c-.005-1.525-.099-3.39-2.156-3.39-2.156 0-2.486 1.684-2.486 3.425v6.611H7.074V6.647h3.978v1.82h.058c.553-1.049 1.906-2.155 3.922-2.155zm-10.555.336V20H.33V6.648h4.147zM2.402 0c1.325 0 2.4 1.076 2.401 2.402 0 1.325-1.075 2.424-2.401 2.424C1.076 4.826 0 3.728 0 2.402A2.402 2.402 0 012.402 0z" />
  </symbol>
  <symbol viewBox="0 0 159 28" id="AltayerLogo">
    <path fill="#fff" d="M132.148 20.851c0 1.44-.372 2.208-.672 2.638a23.2 23.2 0 00.644 0c.81-.45 1.624-2.08 1.61-3.825l-.004-11.13-.2.003-1.378.64V20.85zm-18.184-5.76c1.695.863 3.611 3.766 2.145 6.272h-8.758c3.186-1.536 5.435-4.014 6.613-6.273zm15.497-6.557l-1.368.65.006 11.677c-.006.176-.035.495-.258.505h-11c2.642-3.081-.05-7.094-1.321-7.781 0 0-1.689.625-1.992.867-2.494 3.82-6.978 5.814-8.815 6.345.728-.396 1.31-1.245 1.31-3.004l-.001-9.259h-.22l-1.366.65v9.505c0 2.43-.879 2.677-2.261 2.677-.735 0-.6-.002-.6-.002-.421 0-.814-.396-.814-.935 0-.774.02-8.083 0-8.72-.027-.781-.17-2.017-1.04-2.742l-1.075 1.98s.445.412.53 1.168v8.3c0 1.74.244 1.966.435 2.283.282.47 1.05.786 1.816.79 20.112-.002 5.765.013 26.558.013.831-.365 1.692-2.121 1.692-3.823l-.001-11.144h-.215zM95.028 13.56h-.23l-1.051 2.005s1.557 2.978 1.284 5.134c-.062.479-.245.668-.245.668h-20.18V13.56h-.26l-1.319.66s-.004 9.296 0 9.29c0 1.6-.726 3.782-4.026 3.74v.602c.557.07 1.17.127 1.582.107 2.852-.143 3.932-2.039 4.023-4.47h20.411s1.154-1.023 1.318-3.361c.145-2.092-1.307-6.568-1.307-6.568z" />
    <path fill="#fff" d="M85.491 25.768a1.04 1.04 0 11-2.08 0 1.042 1.042 0 112.08 0zm2.221 0a1.04 1.04 0 11-2.078 0 1.039 1.039 0 112.078 0zm-82.06-2.27h2.11v-6.442c0-2.095-.464-3.646-3.46-3.646-3.038 0-3.735 1.485-3.968 2.884h2.512c0-.932.084-2.16 1.478-2.16 1.328 0 1.328 1.483 1.328 2.817v1.08c-1.35.044-5.55.277-5.55 3.265 0 1.249 1.182 2.433 2.828 2.433 1.626 0 2.342-1.036 2.722-1.48v1.249zm0-3.475c0 1.442-.74 2.565-1.963 2.565-.781 0-1.268-.678-1.268-1.652 0-2.013 2.474-2.12 3.231-2.142v1.229zm4.715-8.473c0-1.505-.36-1.865-1.607-1.93v-.422l3.718-.532v14.832h-2.111V11.55zm15.71 12.01c-.463.083-.948.17-1.413.17-2.029 0-3.207-.318-3.207-2.734v-6.504h-1.65v-.845h1.65v-1.678l2.11-1.88v3.558h2.764v.846h-2.763v6.168c0 1.482.105 2.138 1.729 2.138.25 0 .528-.02.78-.086v.847zm7.131-.062h2.11v-6.442c0-2.095-.463-3.646-3.461-3.646-3.041 0-3.737 1.485-3.97 2.884H30.4c0-.932.086-2.16 1.477-2.16 1.332 0 1.332 1.483 1.332 2.817v1.08c-1.351.044-5.553.277-5.553 3.265 0 1.249 1.182 2.433 2.83 2.433 1.623 0 2.341-1.036 2.723-1.48v1.249zm0-3.475c0 1.442-.74 2.565-1.966 2.565-.78 0-1.265-.678-1.265-1.652 0-2.013 2.47-2.12 3.231-2.142v1.229zm9.788 4.28c-.655 1.696-1.394 3.517-3.694 3.517s-2.85-1.757-2.933-2.713h2.43c0 .64.1 1.57 1.116 1.57.93 0 1.391-1.082 1.687-1.844l.274-.719-3.397-8.138c-.506-1.25-.803-1.842-2.26-1.906v-.423h3.592l3.123 7.798 3.04-7.798h1.2l-4.178 10.656zm13.117-2.078c-.355.15-1.099.363-1.98.363-2.977 0-3.845-3.008-3.845-5.127h6.016c0-1.42-.296-4.051-3.901-4.051-2.83 0-4.437 1.468-4.437 4.815 0 3.535 1.941 5.504 5.171 5.504 1.459 0 2.578-.42 2.976-.569v-.935zm-5.825-5.612c0-.805.444-2.479 2.03-2.479 1.836 0 1.875 1.993 1.875 2.48h-3.905zm8.403-.214c0-1.481-.339-1.841-1.67-1.885v-.423l3.779-.681v2.8h.044c.294-.976.95-2.8 2.638-2.8.382 0 .78.044 1.14.108v2.013c-.339-.105-.718-.253-1.077-.253-2.133 0-2.745 1.673-2.745 3.155v5.064h-2.11V16.4z" />
    <path fill="#e61" d="M154.172 14.187l1.303-3.823c-9.573 1.269-12.117 11.144-12.117 11.144s3.702-6.505 10.814-7.32" />
    <path fill="#e61" d="M141.922 26.242c1.401.247 10.563-1.188 12.088-10.87-.825 2.194-5.892 8.509-13.745 7.748l1.657 3.122zm15.194-21.763l1.478-4.35c-5.938.963-14.539 7.307-14.961 18.472 2.705-11.564 11.478-13.767 13.483-14.122z" />
  </symbol>
  <symbol viewBox="0 0 50 30" fill="none" id="Amber">
    <defs>
      <clipPath id="mszn5d7mya">
        <path fill="#fff" d="M0 0h180v116H0z" />
      </clipPath>
      <clipPath id="fhygnhpuvb">
        <path fill="#fff" d="M0 0h180v116H0z" />
      </clipPath>
    </defs>
    <g clip-path="url(#mszn5d7mya)" transform="matrix(0.2777779996395111, 0, 0, 0.2586210072040558, 0, 0)">
      <g clip-path="url(#fhygnhpuvb)">
        <mask id="27q0oouwvc" style="mask-type:luminance" maskUnits="userSpaceOnUse" x="0" y="0" width="180" height="116">
          <path d="M180 0H0v116h180V0z" fill="#fff" />
        </mask>
        <g mask="url(#27q0oouwvc)">
          <path d="M180 0H0v116h180V0z" style="fill: rgb(45, 45, 45);" />
          <path d="M142.212 28.799h1.34v1.579h-4.015v-1.58h1.248c.006-1.684.895-3.051 2.417-3.051l.35 1.579c-.736 0-1.335.66-1.34 1.473zM140.832 32.231h1.426v13.243h-1.426V32.231zM71.802 64.066 63.735 84.03l-8.65-19.964h-6.931v.462c2.292.803 2.625 3.215 2.625 4.542v13.612l-.002-.013c0 1.97-.404 5.773-3.202 6.965v.457h7.83v-.457c-2.742-1.168-3.184-4.837-3.2-6.839V67.886l9.122 22.205h1.362l1.436-3.459 7.786-18.757V85.09c0 1.327-.33 3.74-2.624 4.543v.457h9.335v-.457c-2.292-.803-2.624-3.216-2.624-4.543V69.07c0-1.328.332-3.74 2.624-4.543v-.462h-6.82z" fill="#fff" />
          <path fill-rule="evenodd" clip-rule="evenodd" d="M96.803 75.98V75.9c3.212-.325 7.847-1.423 7.847-6.018 0-4.757-6.095-5.814-9.563-5.814H81.15v.461c2.293.803 2.624 3.216 2.624 4.542v16.021c0 1.327-.33 3.74-2.624 4.543v.457h7.15c2.141 0 3.99.072 5.223.12.616.024 1.079.042 1.346.042.949 0 2.482-.04 3.906-.244 3.394-.407 8.066-2.033 8.066-6.831 0-5.449-6.096-7.116-10.037-7.197zm-1.095 12.534h-5.11c-2.336 0-2.592-.895-2.592-4.92v-6.78h6.242c2.81 0 7.701 1.037 7.701 5.917 0 4.472-2.445 5.783-6.241 5.783zm-7.702-22.869h5.986c3.942 0 6.059 1.512 6.059 4.4 0 3.333-2.373 5.191-7.519 5.191h-4.526v-9.59zM33.035 64.067l8.982 18.603c.054.111 3.376 6.964 4.878 6.964v.457h-9.38v-.457c2.581-.531.81-4.44.81-4.44l-2.964-6.54h-8.937l-1.846 4.016c-3.2 6.965 1.14 6.964 1.14 6.964v.457H18.39v-.457c2.335-1.108 5.015-6.835 5.073-6.959l8.646-18.608h.927zm-2.111 4.797-3.776 8.215h7.5l-3.724-8.215zM159.136 87.33l-1.675-4.66c-1.67-4.65-4.787-5.713-8.473-6.201v-.081c3.832 0 9.818-.732 9.818-6.344 0-3.619-2.811-5.978-9.599-5.978h-14.722v.462c2.293.803 2.624 3.216 2.624 4.542v16.021c0 1.327-.331 3.74-2.624 4.543v.457h9.462v-.457c-2.293-.803-2.624-3.216-2.624-4.543V77.08h5.329c4.319.115 5.105 2.527 6.539 6.924l.25.762 1.751 5.326h6.206v-.457c-1.247-.436-1.913-1.348-2.262-2.303zm-17.813-11.86v-9.825h6.862c3.868 0 5.73 1.634 5.73 4.643 0 2.725-2.008 5.182-5.986 5.182h-6.606z" fill="#fff" />
          <path d="M118.437 88.516h4.217s6.125 0 10.213-4.493l.368.13-1.639 5.938h-23.321v-.457c2.293-.803 2.624-3.216 2.624-4.543v-16.02c0-1.327-.331-3.74-2.624-4.543v-.462h21.716l1.412 5.391-.548.227c-1.958-4.042-8.292-4.042-8.292-4.042h-7.428v9.864h6.248c1.198 0 3.377-.366 4.103-2.905h.413v7.386h-.413c-.726-2.539-2.905-2.905-4.103-2.905h-6.248v9.102l.001-.006c.584 2.043 2.337 2.338 3.301 2.338zM83.139 49.83l1.11 1.292.347.404.283.328.782-.876.021-.023.908-1.018-.986-1.12-.747-.849-.433.47-.442.479-.843.913z" fill="#fff" />
          <path fill-rule="evenodd" clip-rule="evenodd" d="M88.903 45.376c-1.68-.215-3.015-1.334-3.97-2.953-.64 1.447-1.743 2.437-3.088 2.777a8.926 8.926 0 0 1-2.24.274c-.658.002-35.055 0-35.055 0-.358 3.874-3.323 6.907-6.915 6.907V50.8c3.046 0 5.525-2.744 5.525-6.117V34.285h1.426v9.61l35.41-.015c2.707 0 4.056-1.428 4.129-4.421v-5.383h1.421v5.366c.137 2.574 1.696 4.286 4.019 4.416.946.052 33.475.039 33.475.039 2.461-1.005 4.306-3.603 4.47-6.717v-.76h1.401v.76c.196 3.715 2.436 6.319 5.741 6.73h1.024v1.55h-1.024c-3.305.412-5.545 3.016-5.741 6.732v.758h-1.401v-.759c-.159-3.01-2.255-5.725-4.47-6.719 0 0-33.413-.003-34.137-.096zm43.027-.703c-1.676-.84-2.979-2.26-3.725-4.104-.667 1.738-2.109 3.165-3.512 4.104 1.358.949 2.83 2.42 3.512 4.166.744-1.863 2.038-3.322 3.725-4.166z" fill="#fff" />
        </g>
      </g>
    </g>
  </symbol>
  <symbol viewBox="0 0 120 40" id="AppleAppStoreAr">
    <path fill="#fff" stroke="#000" d="M111.42.5l.92.01c.65.01 1.3.07 1.93.17a6.08 6.08 0 015.03 5 13.33 13.33 0 01.2 2.83v1.1h0v20.78a48.6 48.6 0 01-.01 2c-.01.65-.07 1.29-.18 1.92a5.94 5.94 0 01-3.23 4.42 6.4 6.4 0 01-1.8.59c-.65.1-1.3.16-1.95.17h-.9 0l-1.1.01H8.59l-.91-.01c-.66-.01-1.3-.07-1.95-.17a6.42 6.42 0 01-3.32-1.7 5.79 5.79 0 01-1.71-3.3 12.7 12.7 0 01-.18-1.93v-.86h0V8.45v-.83c.01-.64.07-1.3.18-1.93a6.19 6.19 0 011.7-3.31A6.07 6.07 0 015.72.68c.64-.1 1.3-.16 1.95-.17h0l.9-.01h102.85z" />
    <g fill="#000">
      <path d="M107.26 20.3c.02-1.7.91-3.26 2.36-4.15a5.07 5.07 0 00-4-2.16c-1.67-.18-3.3 1-4.16 1-.87 0-2.19-.98-3.6-.95a5.32 5.32 0 00-4.48 2.73c-1.93 3.34-.5 8.27 1.36 10.97.93 1.33 2.01 2.8 3.43 2.76 1.39-.06 1.9-.89 3.58-.89 1.66 0 2.14.89 3.59.85 1.49-.02 2.43-1.33 3.32-2.67.67-.94 1.18-1.99 1.52-3.09a4.78 4.78 0 01-2.92-4.4zM104.53 12.21a4.87 4.87 0 001.11-3.49 4.96 4.96 0 00-3.2 1.66 4.64 4.64 0 00-1.15 3.36 4.1 4.1 0 003.24-1.53z" />
      <path d="M17.2 27.14h-4.74l-1.13 3.36h-2l4.48-12.42h2.08l4.48 12.42h-2.04l-1.13-3.36zm-4.25-1.55h3.76l-1.85-5.45h-.05l-1.86 5.45zM30.06 25.97c0 2.81-1.51 4.62-3.78 4.62a3.07 3.07 0 01-2.85-1.58h-.04v4.48h-1.86V21.44h1.8v1.5h.03a3.21 3.21 0 012.88-1.6c2.3 0 3.82 1.82 3.82 4.63zm-1.91 0c0-1.83-.95-3.04-2.4-3.04-1.42 0-2.37 1.23-2.37 3.04 0 1.82.95 3.05 2.37 3.05 1.45 0 2.4-1.2 2.4-3.05zM40.02 25.97c0 2.81-1.5 4.62-3.78 4.62a3.07 3.07 0 01-2.85-1.58h-.04v4.48h-1.86V21.44h1.8v1.5h.04a3.21 3.21 0 012.88-1.6c2.3 0 3.81 1.82 3.81 4.63zm-1.91 0c0-1.83-.95-3.04-2.4-3.04-1.41 0-2.37 1.23-2.37 3.04 0 1.82.96 3.05 2.38 3.05 1.44 0 2.39-1.2 2.39-3.05zM46.6 27.04c.14 1.23 1.34 2.04 2.98 2.04 1.56 0 2.69-.81 2.69-1.92 0-.97-.68-1.54-2.3-1.94l-1.6-.39c-2.28-.55-3.34-1.61-3.34-3.34 0-2.15 1.87-3.62 4.52-3.62 2.62 0 4.42 1.47 4.48 3.62h-1.87c-.12-1.24-1.14-2-2.64-2-1.5 0-2.52.77-2.52 1.87 0 .87.66 1.4 2.26 1.79l1.36.33c2.55.6 3.61 1.63 3.61 3.44 0 2.33-1.85 3.78-4.8 3.78-2.75 0-4.6-1.42-4.73-3.66h1.9zM58.24 19.3v2.14h1.72v1.47h-1.72v5c0 .77.35 1.13 1.1 1.13.2 0 .41-.02.61-.04v1.46c-.34.07-.68.1-1.03.09-1.83 0-2.55-.7-2.55-2.45v-5.19h-1.31v-1.47h1.31V19.3h1.87zM60.96 25.97c0-2.85 1.68-4.64 4.3-4.64s4.29 1.8 4.29 4.64c0 2.86-1.66 4.64-4.3 4.64-2.63 0-4.29-1.78-4.29-4.64zm6.7 0c0-1.95-.9-3.1-2.4-3.1-1.51 0-2.4 1.15-2.4 3.1 0 1.96.89 3.1 2.4 3.1 1.5 0 2.4-1.14 2.4-3.1zM71.08 21.44h1.77v1.54h.05c.24-.99 1.15-1.67 2.18-1.63.2 0 .42.02.63.07v1.74a2.6 2.6 0 00-.83-.12 1.87 1.87 0 00-1.94 2.09v5.37h-1.86v-9.06zM84.28 27.84c-.25 1.64-1.85 2.77-3.9 2.77-2.63 0-4.27-1.77-4.27-4.6 0-2.84 1.65-4.68 4.2-4.68 2.5 0 4.07 1.72 4.07 4.47v.63h-6.4v.12a2.36 2.36 0 002.44 2.56c.9.08 1.76-.43 2.1-1.27h1.76zM78 25.14h4.52a2.18 2.18 0 00-2.22-2.3 2.3 2.3 0 00-2.3 2.28v.01z" />
      <path d="M53.8 16.08h-.66c-1.27 0-2.61-.26-2.61-2.02.08-.79.26-1.57.54-2.32l.84.23-.12.4c-.18.54-.3 1.11-.36 1.7 0 1.2 1.16 1.2 1.95 1.2h.54c.4 0 .94-.15.94-.65v-3.44h.93v2.58c.2.08.42.12.64.12h.32v.8h-.32c-.22 0-.43-.03-.64-.1v.13c0 .45-.35 1.37-2 1.37zm-.54-5.84a.56.56 0 11.6-.57.55.55 0 01-.6.57z" />
      <path d="M57.8 13.88c-.1-.38-.16-.78-.15-1.18a1.86 1.86 0 011.9-2.05c1.23 0 1.7 1 1.7 2.21 0 .89-.3 2.1-1.52 2.1-.4-.05-.79-.14-1.16-.28h-1.98v-.8h1.21zm.94.03c.3.13.61.2.93.22.54 0 .7-.69.7-1.3 0-.58-.17-1.42-.88-1.42-.64 0-.91.6-.91 1.35-.02.39.04.78.16 1.15zM67.4 16.08h-.65c-1.27 0-2.61-.26-2.61-2.02.09-.79.27-1.57.54-2.32l.85.23-.13.4c-.18.54-.3 1.11-.35 1.7 0 1.2 1.16 1.2 1.94 1.2h.55c.39 0 .93-.15.93-.65V8.81h.93v4.95c.2.08.42.12.64.12h.32v.8h-.32c-.22 0-.43-.03-.64-.1v.13c0 .45-.35 1.37-2 1.37z" />
      <path d="M73.5 10.7v2.44c0 1.04-.62 1.54-1.85 1.54H70.2v-.8h1.41c.74 0 .94-.32.94-.87v-2.32h.95zm-2.34 5.93a.56.56 0 11.6-.56.55.55 0 01-.6.56zm1.46 0a.56.56 0 11.6-.56.55.55 0 01-.6.56zM74.2 15.99l.4.02c.76 0 1.14-.44 1.14-1.34v-3.5h.94v2.7h.87v.81h-.88c.01.6-.2 1.17-.6 1.61-.42.36-.96.54-1.51.52-.2 0-.4-.02-.6-.05l.23-.77zm1.97-5.67a.56.56 0 11.6-.56.55.55 0 01-.6.56z" />
      <path d="M80.64 14.68a2.35 2.35 0 01-1.07-.3 2.6 2.6 0 01-1.48.3h-.7v-.8h.76c.71 0 .85-.11.85-.64V10.7h.93v3.03c.22.1.46.16.7.16h.6v.8h-.6zm-1.21-4.86a.56.56 0 11.59-.57.55.55 0 01-.6.57z" />
      <path d="M83.45 10.7v2.44c0 1.04-.62 1.54-1.85 1.54h-.54v-.8h.5c.75 0 .95-.32.95-.87v-2.32h.94zm-1.39-.88a.56.56 0 11.6-.57.55.55 0 01-.6.57zm1.47 0a.56.56 0 11.6-.57.55.55 0 01-.6.57z" />
    </g>
  </symbol>
  <symbol viewBox="0 0 120 40" id="AppleAppStore">
    <path fill="#fff" stroke="#000" d="M111.42.5l.92.01c.65.01 1.3.07 1.93.17a6.08 6.08 0 015.03 5 13.33 13.33 0 01.2 2.83v1.1h0v20.78a48.6 48.6 0 01-.01 2c-.01.65-.07 1.29-.18 1.92a5.94 5.94 0 01-3.23 4.42 6.4 6.4 0 01-1.8.59c-.65.1-1.3.16-1.95.17h-.9 0l-1.1.01H8.59l-.91-.01c-.66-.01-1.3-.07-1.95-.17a6.42 6.42 0 01-3.32-1.7 5.79 5.79 0 01-1.71-3.3 12.7 12.7 0 01-.18-1.93v-.86h0V8.45v-.83c.01-.64.07-1.3.18-1.93a6.19 6.19 0 011.7-3.31A6.07 6.07 0 015.72.68c.64-.1 1.3-.16 1.95-.17h0l.9-.01h102.85z" />
    <g fill="#000">
      <path d="M24.77 20.3c.02-1.7.91-3.26 2.36-4.15a5.07 5.07 0 00-4-2.16c-1.67-.18-3.3 1-4.16 1-.87 0-2.19-.98-3.6-.95a5.32 5.32 0 00-4.48 2.73c-1.93 3.34-.5 8.26 1.36 10.97.93 1.33 2.01 2.8 3.43 2.75 1.39-.05 1.9-.88 3.58-.88 1.66 0 2.14.88 3.59.85 1.49-.02 2.43-1.33 3.32-2.67.67-.94 1.18-1.99 1.52-3.09a4.78 4.78 0 01-2.92-4.4zM22.04 12.21a4.87 4.87 0 001.11-3.49 4.96 4.96 0 00-3.2 1.66 4.64 4.64 0 00-1.15 3.36 4.1 4.1 0 003.24-1.53z" />
      <path d="M42.3 27.14h-4.73l-1.14 3.36h-2l4.48-12.42H41l4.49 12.42h-2.04l-1.14-3.36zm-4.24-1.55h3.75l-1.85-5.45h-.05l-1.85 5.45zM55.16 25.97c0 2.81-1.5 4.62-3.78 4.62a3.07 3.07 0 01-2.85-1.58h-.04v4.48h-1.86V21.44h1.8v1.5h.03a3.21 3.21 0 012.89-1.6c2.3 0 3.81 1.82 3.81 4.63zm-1.91 0c0-1.83-.95-3.04-2.4-3.04-1.41 0-2.37 1.23-2.37 3.04 0 1.82.96 3.05 2.38 3.05 1.44 0 2.39-1.2 2.39-3.05zM65.12 25.97c0 2.81-1.5 4.62-3.77 4.62a3.07 3.07 0 01-2.85-1.58h-.05v4.48H56.6V21.44h1.8v1.5h.03a3.21 3.21 0 012.88-1.6c2.3 0 3.81 1.82 3.81 4.63zm-1.9 0c0-1.83-.95-3.04-2.4-3.04-1.42 0-2.37 1.23-2.37 3.04 0 1.82.95 3.05 2.37 3.05 1.45 0 2.4-1.2 2.4-3.05zM71.71 27.04c.14 1.23 1.33 2.04 2.97 2.04 1.57 0 2.7-.81 2.7-1.92 0-.97-.69-1.54-2.3-1.94l-1.6-.39c-2.29-.55-3.34-1.61-3.34-3.34 0-2.15 1.86-3.62 4.51-3.62 2.63 0 4.43 1.47 4.49 3.62h-1.88c-.11-1.24-1.14-2-2.63-2-1.5 0-2.52.76-2.52 1.87 0 .87.65 1.4 2.25 1.79l1.37.33c2.55.6 3.6 1.63 3.6 3.44 0 2.33-1.85 3.78-4.79 3.78-2.75 0-4.61-1.42-4.73-3.66h1.9zM83.35 19.3v2.14h1.72v1.47h-1.72v5c0 .77.34 1.13 1.1 1.13.2 0 .4-.02.6-.04v1.46c-.33.07-.68.1-1.02.09-1.84 0-2.55-.7-2.55-2.45v-5.19h-1.32v-1.47h1.32V19.3h1.87zM86.06 25.97c0-2.85 1.68-4.64 4.3-4.64s4.3 1.8 4.3 4.64c0 2.86-1.67 4.64-4.3 4.64s-4.3-1.78-4.3-4.64zm6.7 0c0-1.95-.9-3.1-2.4-3.1s-2.4 1.15-2.4 3.1c0 1.96.9 3.1 2.4 3.1s2.4-1.14 2.4-3.1zM96.19 21.44h1.77v1.54H98c.25-.99 1.16-1.67 2.18-1.63.21 0 .43.02.64.07v1.74a2.6 2.6 0 00-.84-.12 1.87 1.87 0 00-1.94 2.09v5.37H96.2v-9.06zM109.38 27.84c-.25 1.64-1.85 2.77-3.9 2.77-2.63 0-4.26-1.77-4.26-4.6 0-2.84 1.64-4.68 4.19-4.68 2.5 0 4.08 1.72 4.08 4.47v.63h-6.4v.12a2.36 2.36 0 002.44 2.56c.9.08 1.75-.43 2.09-1.27h1.76zm-6.28-2.7h4.53a2.18 2.18 0 00-2.22-2.3 2.3 2.3 0 00-2.3 2.3z" />
      <path d="M37.83 8.73a2.64 2.64 0 012.8 2.97c0 1.9-1.03 3-2.8 3h-2.16V8.73h2.16zm-1.23 5.12h1.12a1.88 1.88 0 001.97-2.14 1.88 1.88 0 00-1.97-2.14H36.6v4.28zM41.68 12.44a2.13 2.13 0 114.25 0 2.13 2.13 0 11-4.25 0zm3.33 0c0-.97-.43-1.54-1.2-1.54-.78 0-1.21.57-1.21 1.54 0 .99.43 1.55 1.2 1.55.78 0 1.21-.57 1.21-1.55zM51.57 14.7h-.92l-.93-3.32h-.07l-.93 3.32h-.91l-1.24-4.51h.9l.81 3.44h.06l.93-3.44h.85l.93 3.44h.07l.8-3.44h.89zM53.85 10.2h.86v.71h.07c.23-.53.77-.85 1.34-.8a1.46 1.46 0 011.56 1.67v2.92h-.9V12c0-.72-.3-1.08-.96-1.08a1.03 1.03 0 00-1.08 1.14v2.64h-.89v-4.5zM59.09 8.44h.89v6.26h-.89zM61.22 12.44a2.13 2.13 0 114.25 0 2.13 2.13 0 11-4.25 0zm3.33 0c0-.97-.44-1.54-1.2-1.54-.78 0-1.21.57-1.21 1.54 0 .99.43 1.55 1.2 1.55s1.21-.57 1.21-1.55zM66.4 13.42c0-.8.6-1.27 1.68-1.34l1.22-.07v-.39c0-.47-.32-.74-.93-.74-.5 0-.84.18-.93.5h-.87c.1-.78.82-1.27 1.84-1.27 1.13 0 1.77.56 1.77 1.51v3.08h-.86v-.64h-.07c-.29.47-.8.74-1.35.71a1.36 1.36 0 01-1.5-1.35zm2.9-.38v-.38l-1.1.07c-.62.04-.9.26-.9.65 0 .4.35.64.83.64a1.06 1.06 0 001.17-.98zM71.35 12.44c0-1.42.73-2.32 1.87-2.32.57-.03 1.11.28 1.38.79h.06V8.44h.9v6.26h-.86v-.71h-.07c-.29.5-.83.8-1.41.78-1.15 0-1.87-.9-1.87-2.33zm.92 0c0 .96.45 1.53 1.2 1.53s1.21-.58 1.21-1.52c0-.94-.47-1.53-1.21-1.53-.75 0-1.2.58-1.2 1.52zM79.23 12.44a2.13 2.13 0 114.25 0 2.13 2.13 0 11-4.25 0zm3.33 0c0-.97-.44-1.54-1.2-1.54-.78 0-1.21.57-1.21 1.54 0 .99.43 1.55 1.2 1.55s1.21-.57 1.21-1.55zM84.67 10.2h.85v.71h.07c.23-.53.77-.85 1.35-.8a1.46 1.46 0 011.55 1.67v2.92h-.88V12c0-.72-.32-1.08-.98-1.08a1.03 1.03 0 00-1.07 1.14v2.64h-.9v-4.5zM93.52 9.07v1.15h.97v.74h-.97v2.32c0 .47.19.68.63.68l.34-.02v.74c-.16.03-.32.04-.48.04-1 0-1.38-.35-1.38-1.21v-2.55h-.72v-.74h.72V9.07h.89zM95.7 8.44h.89v2.48h.07c.24-.53.79-.86 1.37-.8a1.48 1.48 0 011.55 1.67v2.9h-.89v-2.68c0-.72-.34-1.08-.96-1.08a1.05 1.05 0 00-1.14 1.14v2.63h-.89V8.44zM104.76 13.48a1.83 1.83 0 01-1.95 1.3 2.05 2.05 0 01-2.08-2.32 2.08 2.08 0 012.08-2.35c1.25 0 2 .85 2 2.27v.3h-3.17v.06a1.19 1.19 0 001.2 1.29c.43.05.85-.17 1.07-.55h.85zm-3.12-1.45h2.27a1.09 1.09 0 00-1.1-1.17 1.15 1.15 0 00-1.17 1.17z" />
    </g>
  </symbol>
  <symbol viewBox="0 0 26 26" id="Clock">
    <g stroke="currentColor" fill="none" stroke-width="1px" stroke-linecap="round" stroke-linejoin="round">
      <circle cx="13" cy="13" r="12.5" />
      <path d="M13 6.5V13l3 3" />
    </g>
  </symbol>
  <symbol viewBox="0 0 24 24" stroke-width="1" stroke="currentColor" fill="none" stroke-linecap="round" stroke-linejoin="round" id="Cross">
    <path stroke="none" d="M0 0h24v24H0z" fill="none" />
    <path d="M18 6l-12 12" />
    <path d="M6 6l12 12" />
  </symbol>
  <symbol viewBox="0 0 24 24" id="Left">
    <path fill="none" stroke="currentColor" stroke-width="1.5" d="M15.525 18.966L8.558 12l6.967-6.967" />
  </symbol>
  <symbol viewBox="0 0 41 20" id="MeasuringTape">
    <g fill="#2D2D2D" fill-rule="nonzero">
      <path d="M36.805 1.03C34.567.402 31.602.057 28.456.057c-1.188 0-2.36.05-3.485.147-.33.029-.574.32-.546.65.029.33.32.574.65.546 1.09-.095 2.228-.143 3.381-.143 7.208 0 10.979 1.719 10.979 2.64s-3.77 2.64-10.979 2.64c-7.208 0-10.978-1.719-10.978-2.64 0-.377.826-1.273 3.953-1.962.324-.07.528-.391.457-.715-.07-.323-.39-.528-.715-.457-2.233.492-4.895 1.435-4.895 3.134v5.05H4.598v-.313c0-.552-.449-1-1-1H1c-.551 0-1 .448-1 1v10.307c0 .551.449 1 1 1h2.598c.551 0 1-.449 1-1v-.314h3.64c.331 0 .6-.268.6-.6 0-.331-.269-.6-.6-.6h-3.64v-7.28h1.56v3.64c0 .331.269.6.6.6.332 0 .6-.269.6-.6v-3.64h1.44v1.52c0 .331.269.6.6.6.332 0 .6-.269.6-.6v-1.52h1.6v1.52c0 .331.269.6.6.6.332 0 .6-.269.6-.6v-1.52h1.6v1.52c0 .331.269.6.6.6.332 0 .6-.269.6-.6v-1.52h1.6v3.64c0 .332.269.6.6.6.332 0 .6-.268.6-.6v-3.64h1.6v1.52c0 .331.269.6.6.6.332 0 .6-.269.6-.6v-1.52h1.6v1.52c0 .331.269.6.6.6.332 0 .6-.269.6-.6v-1.52h1.6v1.52c0 .331.269.6.6.6.332 0 .6-.269.6-.6v-1.52h1.6v3.64c0 .332.269.6.6.6.332 0 .6-.268.6-.6v-3.64s1.4-.005 1.6-.015v1.535c0 .331.269.6.6.6.332 0 .6-.269.6-.6v-1.657c.544-.083 1.079-.202 1.6-.357v.954c0 .332.269.6.6.6.332 0 .6-.268.6-.6v-1.3c0-.028-.002-.055-.006-.081.556-.233 1.093-.508 1.606-.822v.902c0 .331.269.6.6.6.332 0 .6-.269.6-.6V7.562c.5-.399.97-.839 1.403-1.319.004 2.04.007 4.904-.04 5.574-.118 1.698-.979 3.173-2.424 4.154-1.265.858-3.435 1.457-5.278 1.457H12.038c-.332 0-.6.269-.6.6 0 .332.268.6.6.6h19.62c1.742 0 4.258-.514 5.952-1.664 1.731-1.175 2.806-3.02 2.948-5.064.054-.78.077-7.852.077-8.002 0-1.192-1.289-2.158-3.83-2.869zM3.398 9.547v9.194H1.2V8.835h2.198v.713zm27.2-.6h-13.12v-3.27c.63.412 1.507.775 2.63 1.089 2.237.626 5.202.971 8.348.971 3.146 0 6.111-.345 8.35-.971.143-.04.282-.081.418-.123-1.859 1.474-4.181 2.304-6.627 2.304z" />
      <path d="M32.229 2.31c-1.016-.284-2.356-.44-3.773-.44-1.417 0-2.757.156-3.772.44-1.284.359-1.934.893-1.934 1.588 0 .695.65 1.23 1.934 1.588 1.015.284 2.355.441 3.772.441 1.417 0 2.757-.157 3.773-.44 1.283-.36 1.934-.894 1.934-1.589s-.65-1.229-1.934-1.588zm-.593 2.09c-.88.211-2.008.327-3.18.327-2.465 0-4.084-.496-4.457-.826.14-.116.507-.32 1.278-.505.879-.21 2.008-.327 3.18-.327 2.465 0 4.084.497 4.456.826-.14.116-.507.321-1.277.506z" />
    </g>
  </symbol>
  <symbol viewBox="0 0 27 27" id="MoreInfo">
    <g fill="none" stroke="currentColor" stroke-width="1px" stroke-linecap="round" stroke-linejoin="round">
      <path d="M25.734 13.667c0 6.753-5.475 12.228-12.228 12.228-6.754 0-12.229-5.475-12.229-12.228 0-6.754 5.475-12.229 12.229-12.229 6.753 0 12.228 5.475 12.228 12.229zM13.322 16.318v-1.386" />
      <path d="M13.337 18.809a.407.407 0 1 1 .337.742.407.407 0 0 1-.337-.742z" fill="#000" />
      <path d="M10.224 9.834a3.364 3.364 0 1 1 5.552 3.317l-2.436 1.657" />
    </g>
  </symbol>
  <symbol viewBox="0 0 22 25" id="Trash">
    <g stroke="#000" fill="none">
      <path d="M20 3.5l-.693 16.928c0 1.08-.893 4.074-4.154 4.072H6.847c-3.192.003-4.154-2.991-4.155-4.072L2 3.5M7.5 3.5V2.063c0-.585.39-1.106.956-1.248 1.66-.417 3.389-.42 5.05-.01.582.145.994.659.994 1.258V3.5" />
      <path d="M6.5 8.133l1 12.263M15.5 8.133l-1 12.263M.5 3.5h21M11 8.133v12.263" />
    </g>
  </symbol>
  <symbol viewBox="0 0 24 24" id="Left" fill="none">
    <path stroke="currentColor" stroke-width="1.5" d="M15.525 18.966L8.558 12l6.967-6.967" />
  </symbol>
  <symbol viewBox="0 0 41 20" id="MeasuringTape">
    <g fill="none" fill-rule="evenodd">
      <g fill="#2D2D2D" fill-rule="nonzero">
        <g>
          <path d="M36.805 1.03C34.567.402 31.602.057 28.456.057c-1.188 0-2.36.05-3.485.147-.33.029-.574.32-.546.65.029.33.32.574.65.546 1.09-.095 2.228-.143 3.381-.143 7.208 0 10.979 1.719 10.979 2.64s-3.77 2.64-10.979 2.64c-7.208 0-10.978-1.719-10.978-2.64 0-.377.826-1.273 3.953-1.962.324-.07.528-.391.457-.715-.07-.323-.39-.528-.715-.457-2.233.492-4.895 1.435-4.895 3.134v5.05H4.598v-.313c0-.552-.449-1-1-1H1c-.551 0-1 .448-1 1v10.307c0 .551.449 1 1 1h2.598c.551 0 1-.449 1-1v-.314h3.64c.331 0 .6-.268.6-.6 0-.331-.269-.6-.6-.6h-3.64v-7.28h1.56v3.64c0 .331.269.6.6.6.332 0 .6-.269.6-.6v-3.64h1.44v1.52c0 .331.269.6.6.6.332 0 .6-.269.6-.6v-1.52h1.6v1.52c0 .331.269.6.6.6.332 0 .6-.269.6-.6v-1.52h1.6v1.52c0 .331.269.6.6.6.332 0 .6-.269.6-.6v-1.52h1.6v3.64c0 .332.269.6.6.6.332 0 .6-.268.6-.6v-3.64h1.6v1.52c0 .331.269.6.6.6.332 0 .6-.269.6-.6v-1.52h1.6v1.52c0 .331.269.6.6.6.332 0 .6-.269.6-.6v-1.52h1.6v1.52c0 .331.269.6.6.6.332 0 .6-.269.6-.6v-1.52h1.6v3.64c0 .332.269.6.6.6.332 0 .6-.268.6-.6v-3.64s1.4-.005 1.6-.015v1.535c0 .331.269.6.6.6.332 0 .6-.269.6-.6v-1.657c.544-.083 1.079-.202 1.6-.357v.954c0 .332.269.6.6.6.332 0 .6-.268.6-.6v-1.3c0-.028-.002-.055-.006-.081.556-.233 1.093-.508 1.606-.822v.902c0 .331.269.6.6.6.332 0 .6-.269.6-.6V7.562c.5-.399.97-.839 1.403-1.319.004 2.04.007 4.904-.04 5.574-.118 1.698-.979 3.173-2.424 4.154-1.265.858-3.435 1.457-5.278 1.457H12.038c-.332 0-.6.269-.6.6 0 .332.268.6.6.6h19.62c1.742 0 4.258-.514 5.952-1.664 1.731-1.175 2.806-3.02 2.948-5.064.054-.78.077-7.852.077-8.002 0-1.192-1.289-2.158-3.83-2.869zM3.398 9.547v9.194H1.2V8.835h2.198v.713zm27.2-.6h-13.12v-3.27c.63.412 1.507.775 2.63 1.089 2.237.626 5.202.971 8.348.971 3.146 0 6.111-.345 8.35-.971.143-.04.282-.081.418-.123-1.859 1.474-4.181 2.304-6.627 2.304z" transform="translate(-462 -34) translate(462 34)" />
          <path d="M32.229 2.31c-1.016-.284-2.356-.44-3.773-.44-1.417 0-2.757.156-3.772.44-1.284.359-1.934.893-1.934 1.588 0 .695.65 1.23 1.934 1.588 1.015.284 2.355.441 3.772.441 1.417 0 2.757-.157 3.773-.44 1.283-.36 1.934-.894 1.934-1.589s-.65-1.229-1.934-1.588zm-.593 2.09c-.88.211-2.008.327-3.18.327-2.465 0-4.084-.496-4.457-.826.14-.116.507-.32 1.278-.505.879-.21 2.008-.327 3.18-.327 2.465 0 4.084.497 4.456.826-.14.116-.507.321-1.277.506z" transform="translate(-462 -34) translate(462 34)" />
        </g>
      </g>
    </g>
  </symbol>
  <symbol viewBox="0 0 12 12" id="MoreInfoExclamation">
    <g fill="none" stroke-linecap="round" stroke-width=".8" stroke="currentColor">
      <path d="M11 6A5 5 0 1 1 1 6a5 5 0 0 1 10 0z" clip-rule="evenodd" />
      <path d="M6 5v3M5 8h2M5 5h1" />
      <path fill="currentColor" fill-rule="evenodd" d="M6 4h0z" clip-rule="evenodd" />
    </g>
  </symbol>
  <symbol viewBox="0 0 61 61" id="OunassMonogram">
    <circle fill="none" stroke="#fff" stroke-width="0.5" cx="30.5" cy="30.5" r="30" />
    <path fill="#fff" d="M43.5 44.3C35 52.8 23.8 48.8 17.8 43c-6-6-10.2-17-1.1-26C25.7 7.9 37 12 43 18c5.9 6 9.9 17 1.4 25.6l-.8.7M46 15c-7.8-7.7-21.5-8-30.4.8a21.5 21.5 0 00-.9 30.3 21.5 21.5 0 0030.4-.8c9.2-9.1 8.6-22.6.9-30.3m-4.1-8v-.1l1.7.9v.1zm-24.6.9l-.1-.2 1.7-.8v.1zm-1.7 2.4l.3.1.5-.3-1-1.6H15l.5-.5v.3l1 1.6.5-.3v-.4l.3.4-1.6 1zM14 9v.3l1.2 1.5h.2a3.1 3.1 0 01-.2.4l-.8-1c0 .1 0 .4-.3.5h-.5L13 10H13l.5-.4v.2l.4.7h.5l.1-.4-.5-.7h-.3L14 9zM13 11.3l-.4.4h.3c.1 0 .2-.2 0-.4M12 11a.9.9 0 00-.2.3.8.8 0 01.2-.6c.2-.2.6-.2 1 .1.2.3.2.8 0 1-.3.2-.5.1-.7 0l.6-.6a1.2 1.2 0 00-.1-.2c-.3-.2-.6-.2-.8 0m-2 2.2l.8.7.2-.2c.2-.2.1-.6-.1-.8-.3-.2-.6-.2-.8 0a.4.4 0 000 .3zm1.7 1.2l-.2.4-1.7-1.5-.2.2.1-.3.1-.2.1.1s0-.3.2-.4c.2-.3.6-.2.9 0 .3.2.4.7 0 1a1.5 1.5 0 01-.1.3l.6.5.2-.1zm-1.8.2l-.3.5h.3v-.5m-1-.1a.9.9 0 00-.2.3.8.8 0 01.1-.5c.2-.3.6-.4 1-.1.3.2.4.6.2 1-.2.2-.5.1-.7 0l.5-.6a1.2 1.2 0 00-.1-.2c-.3-.2-.7-.2-.8 0m-1 1.3l.4-.6v.2l.9.6v-.1h.1v.2l.1.1c.4.3.6.8.3 1.2a1.1 1.1 0 01-.2.2v-.2a.7.7 0 00.2-.2c0-.2 0-.5-.3-.7l-.2-.2-.3.4v-.2l.1-.3-.8-.6-.3.2zm1 1.7a.1.1 0 01.3 0v.2a.1.1 0 01-.2 0 .1.1 0 010-.2zm-1.4-1.2v.2l1 .6.1-.1a2.7 2.7 0 010 .4l-1.2-.7-.2.1.3-.5zm-.6 1v.2l1 .5.1-.1v.4h-.2v.5c-.2.2-.4.3-.6.2l-.8-.5-.2.2.3-.6v.2l.8.4.4-.1a.5.5 0 000-.4l-.8-.5-.3.1.3-.5zm-.7 2.3c-.2 0-.3 0-.4.2a.6.6 0 000 .3.6.6 0 010-.5c0-.3.3-.3.4-.2l.8.4.1-.2.2.5H7l-.3.5.1-.6-.7-.4zm.8 1.9a.1.1 0 01.2-.1.1.1 0 010 .2.1.1 0 01-.1 0 .1.1 0 01-.1-.1zm-1.6-1v.3l1 .3.2-.1v.4L5.4 21l-.2.1.2-.6zm-.6 1.8a.6.6 0 01-.1-.1H5l1.2-.2h.2l-.2.5v-.2H5l.7.6.2-.1-.1.5-.1-.2-1-.8zm.6 1.5l-.2.6c.2 0 .3-.1.3-.2l-.1-.4m-1 .3a.9.9 0 000 .3.8.8 0 01-.2-.5c.1-.4.4-.6.9-.4.4 0 .6.4.5.7 0 .4-.3.4-.5.4l.2-.8a1.2 1.2 0 00-.2-.1c-.4-.1-.7 0-.7.4m.3 3.9l1 .1.1-.2v.7l-.2-.2-1.9-.3-.2.2v-.7h.1l.1.3h1l.1-1.2-1-.1v.2h-.1V26h.1l.1.2 2 .2.1-.2v.7l-.2-.2-.9-.1zm-1.2 2.2c0 .4.4.8 1 .8.7 0 1.1-.3 1.1-.8s-.4-.8-1-.8c-.7 0-1.1.3-1.1.8m2.2 0c0 .6-.5 1.1-1.1 1.1-.7 0-1.2-.5-1.2-1.1 0-.6.5-1.1 1.1-1.1.7 0 1.2.5 1.2 1.1m0 4l-1.8.1-.2.3v-.8l.2.3 1.6-.2-1.7-.7 1.5-1-1.6.1-.2.3v-.6l.2.2 1.7-.2.3-.2v.4l-1.6 1 1.8.7v.4l-.1-.2zM4 35.1l.2.2 1.8-.4.1-.2.4 1.4H6l.2-.2-.1-.8-1 .2.2.8h.3l-.5.2.2-.2-.2-.8-1 .3.1.8.4.1-.4.1-.3-1.5zm1 3.8c.1.3.4.4.8.2.3 0 .5-.3.4-.6 0-.2-.4-.3-.7-.2-.4.2-.5.4-.5.6m1.3-.4c.1.4 0 .7-.4.9-.4.1-.8 0-1-.4 0-.4.1-.8.5-.9.4-.1.8 0 1 .4m-.7 2.2l-.3-.6.2.1 1-.4v-.2l.1.2.2-.1c.5-.2 1 0 1.1.4l.1.3h-.2a.7.7 0 000-.4c-.1-.1-.4-.3-.8-.1h-.3l.2.5h-.2l-.1-.4-1 .4v.3zm2 2.9l-.5.2-.8-1.4.3.1 1.7-.9v-.3l.3.7-.2-.2-1.8 1 .4.7h.5zm.4 1.7c-.3-.4-.4-1 .1-1.3l1.1-.7v-.2l.4.5h-.2l-1.1.7c-.4.2-.4.6-.2 1 .3.3.6.3 1 .1l1-.7v-.3l.4.5h-.3l-1 .6c-.5.3-1 .2-1.2-.2m1 1.3h1.4l.3-1.1v-.3l.5.6-.3-.1-.3.9h1v-.3l.4.4h-1.3l-.4 1.2v.3l-.5-.5h.3l.3-1H9.3v.3l-.4-.4zm2.4 2.8c-.3-.3-.5-.8 0-1.2l.9-1v-.2l.4.5h-.3l-.9.9c-.3.3-.2.7 0 1 .4.3.7.2 1 0l1-1-.1-.2.4.4h-.3l-.9.8c-.3.4-.8.4-1.2 0m2.5.6l.2.2c.2.1.5 0 .6-.2.3-.2.2-.5 0-.6l-.2-.2-.6.8zm-1.2.6h.3l1.2-1.5V49l.6.5c.3.3.4.5.2.7-.2.3-.5.3-.7.2l-.1.8v.7a.8.8 0 01-.1 0c-.1-.2-.2-.3-.2-.7l.2-.9-.3-.2-.6.8.1.3-.6-.5zm4.2.3l.4.3H17l-1 .5-.6.7.1.3-.6-.4h.3l.5-.7v-1.5l.6.4H16v1l1-.3-.2-.3zm1.7 2.8l-1.7-.8v-.2zm24.7-.6v.1l-1.7.9V54zm1.7-2.4l-.4-.2-.5.4 1.1 1.6h.3l-.6.4v-.2L44 51l-.5.3v.4l-.2-.3 1.6-1zm1.4 1.2l.1-.3-1.2-1.6H45l.3-.3.8 1c0-.1 0-.4.2-.5h.6l.5.7h.3l-.5.4v-.2l-.5-.7c0-.1-.2-.1-.4 0l-.2.4.6.7h.2l-.4.4zm1.2-2.3l.4-.4h-.3c-.1 0-.2.2-.1.4m1 .3a.9.9 0 00.2-.3c0 .2 0 .4-.2.6-.3.2-.7.2-1-.1-.2-.3-.3-.8 0-1 .2-.2.5-.1.7 0l-.7.6.2.2c.2.3.5.2.8 0m2-2.2l-.8-.6-.2.1c-.2.2-.1.6.1.8.3.2.6.2.8 0a.4.4 0 000-.3zm-1.7-1.2l.2-.4 1.7 1.5.2-.1-.1.2-.1.2-.2-.1v.4c-.3.3-.7.3-1 0-.3-.2-.4-.7 0-1l.1-.2-.6-.6-.2.1zm1.8-.2l.4-.5h-.4v.5m1 .2a.9.9 0 00.2-.4.8.8 0 01-.1.6c-.2.3-.6.3-1 0-.3-.2-.4-.6-.2-.9.2-.3.5-.2.7-.1l-.5.7.1.1c.3.3.7.2.8 0m1-1.2l-.3.6v-.3l-1-.6v.2-.3h-.2c-.4-.4-.5-.9-.3-1.2l.2-.3.1.2a.7.7 0 00-.3.2c0 .2 0 .5.3.8l.3.1.2-.4v.2l-.1.3.9.6.2-.1zm.4-.5v-.3l-.9-.5H52a2.8 2.8 0 01.1-.4l1 .7h.3l-.3.5zm-1.4-1.3a.1.1 0 01-.2 0 .1.1 0 010-.1.1.1 0 01.1 0 .1.1 0 010 .1zm2 .3v-.3l-1-.4h-.1v-.4l.3.1v-.5c.1-.2.3-.3.5-.2l.8.4.2-.1-.2.6-.1-.3-.7-.4c-.2 0-.3 0-.4.2a.5.5 0 000 .4l.8.4h.2l-.3.5zm.8-2.4c.1.1.3 0 .4-.1a.6.6 0 000-.3.6.6 0 010 .5c0 .2-.3.2-.4.2l-.9-.4v.2l-.2-.6.2.1.3-.6v.2l-.2.5.8.3zm.8-.8v-.3l-1-.3H54v-.4l1.2.5.2-.1-.2.6zm-1.6-1a.1.1 0 01-.2 0 .1.1 0 010-.1.1.1 0 01.1 0 .1.1 0 010 .1zm2.2-.8l.1.1h-.2l-1.2.1-.2.1.2-.6v.3h1l-.7-.7-.2.2.1-.5.1.2 1 .8zm-.6-1.6l.2-.5c-.2 0-.3 0-.3.2l.1.3m1-.2a.9.9 0 000-.3c.2 0 .2.3.2.5-.1.4-.4.5-.9.4-.4 0-.6-.4-.5-.8 0-.3.3-.3.5-.3l-.2.8h.2c.4.2.7 0 .7-.3m-.3-4h-.9l-.2.2.1-.7.2.2 1.9.3.1-.2v.7l-.2-.3-.9-.1-.2 1.3 1 .1.1-.2v.7l-.2-.2-1.9-.3-.2.2.1-.7.2.3h.8zm1.3-2c0-.5-.4-.9-1-1-.7 0-1.1.4-1.2.9 0 .4.4.8 1 .8.8 0 1.2-.3 1.2-.8M55 31c0-.6.5-1.1 1.2-1.1s1.2.5 1.2 1.1c0 .6-.5 1.1-1.2 1.1S55 31.6 55 31m0-4l2-.1v-.3h.1v.8L57 27l-1.7.2 1.7.7-1.5 1 1.6-.1.2-.3v.6l-.2-.2-1.7.2a1.3 1.3 0 00-.3.2V29l1.6-1-1.8-.8V27l.2.2zm2-1.1l-.2-.2-2 .4v.2l-.3-1.4h.3l-.2.2.2.7.8-.1-.1-.8h-.3v-.1l.6-.1-.2.2.1.7 1-.2v-.8l-.5-.1.5-.1.3 1.5zM56 22c-.1-.2-.4-.3-.8-.2-.3.1-.5.4-.5.6.1.3.4.4.8.2.3 0 .5-.3.4-.6m-1.3.5c0-.4.1-.8.5-.9.4-.1.8 0 1 .4 0 .4-.1.7-.5.9-.4.1-.8 0-1-.4m.7-2.3l.3.7-.2-.1-1 .4v.2l-.2-.2h-.1c-.5.3-1 0-1.1-.4a1.1 1.1 0 01-.1-.2h.2a.7.7 0 000 .3c0 .2.4.4.8.2l.3-.1-.2-.4h.2v.3l1-.3.1-.4zm-1.9-2.8l.5-.2.7 1.4-.3-.1-1.6.8v.3h-.1l-.3-.6.2.1 1.8-1-.4-.6h-.5zm-.4-1.7c.2.4.3.9-.2 1.2l-1.1.7v.3l-.4-.6h.3l1-.6c.4-.3.4-.6.2-1-.2-.3-.6-.4-1-.2l-1 .7v.3l-.3-.5.2.1 1.1-.7c.4-.3.9-.1 1.2.3m-1-1.3h-1.4l-.3 1v.3l-.5-.5h.3l.2-.9h-1v.3l-.3-.4h1.3l.4-1.2v-.3l.5.6h-.3l-.3 1 1-.1v-.3l.4.5zm-2.4-3c.3.4.4.9 0 1.3l-.9 1v.2l-.5-.5h.3l1-.9c.3-.3.2-.7 0-1-.4-.3-.8-.2-1 0l-1 1v.2l-.3-.4h.3l.9-.8c.3-.4.8-.4 1.2 0m-2.5-.6l-.2-.2c-.2-.1-.5 0-.6.1-.3.3-.2.5 0 .7l.2.1.6-.7zm1.2-.6H48l-1.2 1.5v.2l-.6-.5c-.3-.3-.4-.6-.2-.8.2-.2.5-.2.7-.1l.1-.8V9a.9.9 0 01.1 0c.1.1.2.3.2.7l-.2.9.3.2.6-.8-.1-.3.6.5zM44 10l-.4-.3h.3l1-.5.6-.8-.1-.2.6.4h-.3l-.5.7v1.5l-.6-.4h.3v-1l-1 .3.2.3zM26.8 56.8c-.1.6-.5.9-1 .8-.5-.1-.7-.5-.6-1l.4-2.3h-.4l-.4 2.1c0 .7.2 1.2.9 1.3.6.1 1-.2 1.2-.9l.5-2.2h-.2l-.4 2.2zm3.5-2v2.6l-1.6-2.7h-.2v3.4h.2v-2.7l1.6 2.7h.2v-3.4zm-8 1.8c-1 .3-1.6-.5-1.8-1.1a1.8 1.8 0 010-1c.2-.5.5-.8 1-1a1.3 1.3 0 011.2.3c.2.2.5.5.6.9v1c-.1.3-.4.7-.9.9zm.5-3a1.8 1.8 0 00-1.4-.1c-.5 0-.8.4-1 .8-.3.4-.3.9-.2 1.3.1.4.4.8.8 1 .4.2 1 .3 1.4.1a1.8 1.8 0 001.1-.9c.2-.4.3-.8.1-1.2a1.7 1.7 0 00-.8-1zm13.6 2c-.6-.1-.8-.2-1-.5 0-.3.1-.7.5-.8a.7.7 0 01.8.3l.2-.2c-.3-.3-.7-.3-1-.2-.5.2-.8.6-.6 1 .1.5.4.6 1.1.7.6 0 .9.2 1 .5.1.3 0 .7-.5.8-.3.1-.7 0-.9-.2l-.2.2c.3.2.8.3 1.1.2.6-.2.9-.7.7-1.2-.1-.4-.4-.6-1.2-.6m3-.8c-.6-.1-.8-.2-.9-.5 0-.3 0-.7.4-.8a.7.7 0 01.8.3l.2-.2c-.2-.3-.6-.4-1-.2-.5.1-.7.6-.6 1 .1.4.5.6 1.1.7.7 0 .9.2 1 .5.1.3 0 .7-.5.8-.3.1-.7 0-.9-.2l-.2.2c.3.2.8.3 1.1.2.6-.2.9-.7.7-1.2-.1-.4-.4-.6-1.1-.6m-6 1.8l-1 .1.3-1.6.7 1.5zm-.5-2h-.2L32 58h.2l.2-1.1 1.2-.2.5 1.1.3-.1-1.4-3.1zm1-50.3c.1-.6.5-1 1-.8.5 0 .7.5.6 1l-.4 2.3h.3l.4-2.1c.2-.7-.2-1.2-.8-1.4-.7 0-1.1.3-1.2 1l-.5 2.2h.2l.4-2.2zm-3.5 2V3.5L32 6.3h.1V2.8l-.1.1v2.7l-1.7-2.8h-.1v3.4zm8-1.8c1-.3 1.6.5 1.7 1 .2.4.2.8 0 1.2-.1.4-.4.6-.9.8h-1a1.3 1.3 0 01-.2-.2 1.8 1.8 0 01-.6-.9 1.8 1.8 0 010-1c.1-.3.3-.7.9-.9zm-.5 3c.4.2.9.3 1.4.1.4-.1.8-.4 1-.8.3-.5.3-1 .2-1.3a1.7 1.7 0 00-.8-1 1.8 1.8 0 00-1.4-.1 1.8 1.8 0 00-1.1.8 1.7 1.7 0 00-.2 1.3c.2.4.5.8.9 1zm-13.7-2c.7 0 .9.2 1 .5 0 .3 0 .6-.4.7a.7.7 0 01-.8-.2l-.2.2c.2.2.6.3 1 .2.5-.2.8-.6.6-1.1-.1-.4-.5-.6-1.1-.6-.7 0-.9-.2-1-.5-.1-.4 0-.7.5-.9.3 0 .7 0 .9.3L25 4c-.3-.3-.8-.3-1.2-.2-.5.2-.8.7-.6 1.2.1.4.4.5 1.1.6m-3 .8c.7 0 .8.2 1 .5 0 .3-.1.6-.5.8a.7.7 0 01-.7-.3l-.3.2c.3.2.7.3 1 .2.6-.2.8-.6.7-1-.2-.5-.5-.6-1.1-.7-.7 0-1-.2-1-.5-.1-.4 0-.7.5-.9.3 0 .7 0 .9.3l.2-.2c-.3-.2-.8-.3-1.2-.2-.5.2-.8.7-.6 1.2 0 .4.4.5 1.1.6m6-2h1L28 5.8l-.7-1.4zm.5 2h.2l.8-3.3h-.2l-.2 1.1-1.2.1-.5-1h-.3l1.4 3.2z" />
  </symbol>
  <symbol viewBox="0 0 19 23" id="Phone">
    <path fill="none" stroke="currentColor" stroke-linecap="round" stroke-linejoin="round" stroke-width="1px" d="M5.469 1.037l-3.27.46c0 .043 0 .043-.04.043-.29.042-.538.293-.621.587C1.166 3.468 1 4.894 1 6.36 1 14.537 7.124 21.245 14.86 22h.042c.372 0 .745-.168.952-.461l1.738-2.348c.662-.88.496-2.138-.331-2.81l-.91-.754h-.042v-.042c-.041 0-.041-.042-.083-.084-.124-.042-.248-.167-.372-.293-.29-.21-.662-.503-.993-.797a2.568 2.568 0 00-1.904-.545c-.537.042-.91.378-1.324.671-.372.252-.744.42-.827.461-2.193-1.341-3.848-3.48-4.634-5.953.124-.126.33-.252.662-.462.414-.251.869-.419 1.158-.922.373-.587.497-1.3.373-1.97l-.373-1.93-.206-1.131a1.98 1.98 0 00-2.317-1.593z" />
  </symbol>
  <symbol viewBox="0 0 10 20" id="RightChevron">
    <path d="M0 0L10 10L0 20" stroke="currentColor" stroke-linejoin="round" fill="none" />
  </symbol>
  <symbol viewBox="0 0 24 24" id="Right">
    <path fill="none" stroke="currentColor" stroke-width="1.5" d="M8.474 18.966L15.44 12 8.474 5.033" />
  </symbol>
  <symbol viewBox="0 0 19 20" id="Shield">
    <g fill="none" stroke="none" stroke-width="1" fill-rule="nonzero">
      <path d="M9.5,20 C9.43352637,19.9999577 9.36744291,19.9898429 9.304,19.97 C7.155,19.298 5.327,18.009 3.868,16.139 C2.719,14.666 1.8,12.834 1.135,10.692 C0.013,7.079 0,3.86 0,3.726 C0,3.402 0.252,3.13 0.582,3.099 C0.632,3.095 5.635,2.593 9.122,0.12 C9.34897704,-0.0399779643 9.65202296,-0.0399779643 9.879,0.12 C13.364,2.593 18.368,3.095 18.418,3.1 C18.748,3.13 19,3.402 19,3.726 C19,3.861 18.987,7.079 17.865,10.692 C17.2,12.834 16.281,14.666 15.132,16.139 C13.673,18.009 11.845,19.298 9.697,19.97 C9.63323012,19.9899127 9.56680654,20.000028 9.5,20 L9.5,20 Z" fill="#50D691" />
      <path d="M8.731,13 C8.59018541,12.9998427 8.45403809,12.9494966 8.347,12.858 L6.207,11.031 C6.04640912,10.8934527 5.97139761,10.6806796 6.01022158,10.4728302 C6.04904555,10.2649808 6.19580673,10.0936324 6.39522158,10.0233302 C6.59463644,9.95302806 6.81640912,9.99445275 6.977,10.132 L8.64,11.554 L11.938,7.233 C12.1426409,6.99692528 12.4955082,6.96051267 12.744045,7.14982366 C12.9925817,7.33913465 13.0512241,7.68899498 12.878,7.949 L9.202,12.767 C9.09017327,12.9136291 8.91640517,12.9997737 8.732,13 L8.731,13 Z" fill="#FFFFFF" />
    </g>
  </symbol>
  <symbol viewBox="0 0 20 21" id="ShieldOutlined">
    <g fill="none" stroke="currentColor" stroke-width="1px">
      <path d="M9.5,20 C9.43352637,19.9999577 9.36744291,19.9898429 9.304,19.97 C7.155,19.298 5.327,18.009 3.868,16.139 C2.719,14.666 1.8,12.834 1.135,10.692 C0.013,7.079 0,3.86 0,3.726 C0,3.402 0.252,3.13 0.582,3.099 C0.632,3.095 5.635,2.593 9.122,0.12 C9.34897704,-0.0399779643 9.65202296,-0.0399779643 9.879,0.12 C13.364,2.593 18.368,3.095 18.418,3.1 C18.748,3.13 19,3.402 19,3.726 C19,3.861 18.987,7.079 17.865,10.692 C17.2,12.834 16.281,14.666 15.132,16.139 C13.673,18.009 11.845,19.298 9.697,19.97 C9.63323012,19.9899127 9.56680654,20.000028 9.5,20 L9.5,20 Z" />
      <path d="M8.731,13 C8.59018541,12.9998427 8.45403809,12.9494966 8.347,12.858 L6.207,11.031 C6.04640912,10.8934527 5.97139761,10.6806796 6.01022158,10.4728302 C6.04904555,10.2649808 6.19580673,10.0936324 6.39522158,10.0233302 C6.59463644,9.95302806 6.81640912,9.99445275 6.977,10.132 L8.64,11.554 L11.938,7.233 C12.1426409,6.99692528 12.4955082,6.96051267 12.744045,7.14982366 C12.9925817,7.33913465 13.0512241,7.68899498 12.878,7.949 L9.202,12.767 C9.09017327,12.9136291 8.91640517,12.9997737 8.732,13 L8.731,13 Z" fill="currentColor" />
    </g>
  </symbol>
  <symbol viewBox="0 0 15 10" id="SpeedTruck">
    <g fill="none" stroke="currentColor" stroke-width="1px" stroke-linecap="round" stroke-linejoin="round">
      <circle cx="9.15" cy="7.98" r="1.5" />
      <circle cx="2.86" cy="7.98" r="1.5" />
      <path d="M7.45 8.08h-3.3" />
      <path d="M3.05.5h5.67M1.36 2.22h4.1M0 4.08h4.1" />
      <path d="M10.49 8.07h2.81s.49 0 .49-1.21V5.22s.2-1.35-2.17-1.69c0 0-.29 0-.72-.8-.3-.62-.66-1.2-1.09-1.74 0 0-.23-.61-1.35-.49" />
    </g>
  </symbol>
  <symbol viewBox="0 0 24 24" id="Tag">
    <path d="M11.327 1c.096 0 .168.024.235.072l.064.057 10.029 9.727c1.693 1.617 1.788 4.278.284 6.04l-.156.174-4.396 4.585a4.379 4.379 0 01-6.063.241l-.167-.155-10.029-9.685a.457.457 0 01-.12-.247L1 11.713 1.512 3.1v-.084A1.271 1.271 0 012.665 1.82l.126-.006L11.285 1h.042zM7.36 4.728c-.726.043-1.451.343-1.963.9a2.75 2.75 0 00.042 3.943c1.067 1.07 2.86 1.028 3.926-.086C10.431 8.37 10.431 6.57 9.322 5.5a2.92 2.92 0 00-1.963-.772z" fill="none" stroke="#000" stroke-width="1px" stroke-linecap="round" stroke-linejoin="round" />
  </symbol>
  <symbol viewBox="0 0 26 19" id="Truck">
    <g fill="none" stroke="currentColor" stroke-width="1px" stroke-linecap="round" stroke-linejoin="round">
      <circle cx="5.5" cy="16" r="2.5" />
      <circle cx="19" cy="16" r="2.5" />
      <path d="M8 16h8.5m5.2 0h3.1a.7.7 0 00.7-.7V11a4 4 0 00-3.1-4c-.7 0-1.2-.4-1.7-.9l-1.8-3.4A4 4 0 0015.4.5H2.1a.7.7 0 00-.6.6l-1 12c-.1 1.5 1 2.9 2.5 2.9" />
      <path d="M6 5.7c-1.1 0-2-.2-2-.5V3.5c.1-.3 1-.5 2.2-.5H13c1.1 0 2 .3 2 .5v1.8c0 .2-1 .5-2.2.5H10z" />
    </g>
  </symbol>
  <symbol viewBox="0 0 26 23" id="University">
    <g fill="none" stroke="#000" stroke-width="1px" stroke-linecap="round" stroke-linejoin="round">
      <path vector-effect="non-scaling-stroke" d="M5 17.5V9.1l.1-.1H8l.1.1v8.4m3 0V9.1l.1-.1H14l.1.1v8.4m3 0V9.1l.1-.1H20l.1.1v8.4M2.5 20v-2.4l.1-.1h19.8l.1.1V20" />
      <path vector-effect="non-scaling-stroke" d="M24.5 20.1v2.3l-.1.1H.6l-.1-.1V20l.1-.1h23.8l.1.1zm-3-15.4v1.7l-.1.1H3.6l-.1-.1V4.7v-.1l9-4.1 9 4.1v.1z" />
    </g>
  </symbol>
  <symbol viewBox="0 0 27 24" id="WhatsApp">
    <g fill="none" stroke="currentColor" stroke-linecap="round" stroke-linejoin="round" stroke-width="1px">
      <path d="M.5 22.7l1.3-6a9.7 9.7 0 01-1.3-4.9C.5 5.6 6.3.5 13.5.5c7.1 0 13 5 13 11.3s-5.9 11.7-13 11.7c-2.5 0-4.8-.7-6.8-2L.5 22.7z" />
      <path d="M15.5 15.2c.4 0 .6-.6 1.3-.7.8-.1 3.3 1.8 2.5 2.7l-1 1.3c-4.9.4-10-5.8-7.8-11.2l2-.3c1.3-.2 1.4 3 1.1 3.4-.3.4-1 .6-1.2 1l3.1 3.8z" />
    </g>
  </symbol>
  <symbol viewBox="0 0 27 26" id="WhatsAppCommunity">
    <g fill="currentColor" clip-path="url(#a)">
      <path d="M22.21 3.78A12.9 12.9 0 0 0 13.05 0 12.93 12.93 0 0 0 .11 12.87c0 2.27.6 4.49 1.73 6.44L0 25.98l6.86-1.79A12.93 12.93 0 0 0 26 12.9c0-3.45-1.34-6.68-3.79-9.11Zm-9.16 19.8a10.8 10.8 0 0 1-5.48-1.49l-.39-.23-4.07 1.06 1.08-3.95-.25-.4a10.63 10.63 0 0 1-1.65-5.7c0-5.9 4.83-10.7 10.77-10.7A10.72 10.72 0 0 1 23.8 12.88c0 5.9-4.82 10.7-10.76 10.7Zm5.9-8.01c-.32-.16-1.9-.94-2.2-1.05-.3-.1-.52-.16-.73.16a18.5 18.5 0 0 1-1.03 1.27c-.18.21-.37.24-.7.08-.32-.17-1.36-.5-2.6-1.6a9.7 9.7 0 0 1-1.8-2.23c-.19-.32-.02-.5.14-.66.15-.14.33-.37.49-.56.16-.19.21-.32.32-.54.11-.21.06-.4-.02-.56-.08-.16-.73-1.74-1-2.39-.26-.62-.53-.54-.73-.55l-.62-.01c-.21 0-.56.08-.86.4-.3.32-1.13 1.1-1.13 2.69 0 1.58 1.16 3.1 1.32 3.32.16.22 2.28 3.47 5.52 4.86.77.33 1.38.53 1.85.68.77.24 1.48.2 2.03.13.63-.1 1.92-.78 2.19-1.53s.27-1.4.19-1.53c-.08-.14-.3-.22-.62-.38Z" clip-rule="evenodd"/>
    </g>
    <defs>
      <clipPath id="a">
        <path fill="currentColor" d="M0 0h26v26H0z"/>
      </clipPath>
    </defs>
  </symbol>
  <symbol viewBox="0 0 24 24" id="Circle">
    <circle cx="10.5" cy="10.5" fill="none" r="8" stroke="currentColor" stroke-linecap="round" stroke-linejoin="round" />
  </symbol>
  <symbol viewBox="0 0 24 24" id="SelectedOptionCircle">
    <g stroke-linecap="round" stroke-linejoin="round">
      <circle cx="10.5" cy="10.5" r="8" stroke="currentColor" fill="none" stroke-width="2px" />
      <circle cx="10.5" cy="10.5" r="5" fill="currentColor" stroke="none" />
    </g>
  </symbol>
  <symbol viewBox="0 0 22 20" id="Like">
    <g fill="none" stroke="currentColor" stroke-width="1px" stroke-linecap="round" stroke-linejoin="round">
      <path d="M19.6 9.9c.9 0 1.5.7 1.5 1.6 0 .9-.6 1.6-1.5 1.6h-2M18.8 13.1c.9 0 1.6.7 1.6 1.6 0 .9-.7 1.6-1.6 1.6H17M5.7 9.7a39.3 39.3 0 003.8-5c.2-.3.2-.7.3-1C10 2.4 10 1 10 .8l.6-.3c1-.1 1.8 1 2.1 1.7l.4 1c0 .8.2 1.4-.4 3.5l7.3-.2c1 0 1.6.9 1.4 2-.1.7-.7 1.4-1.5 1.4h-1.6M17.3 16.3c1 0 1.8.9 1.6 1.9-.1.8-.9 1.3-1.7 1.3H11c-.9 0-1.8-.2-2.6-.5l-2.7-1.7M1.2 18.5c-.4 0-.7-.4-.7-.8V7.3c0-.4.3-.8.7-.8h3.6c.4 0 .7.4.7.8v10.4c0 .4-.3.8-.7.8H1.2z" />
    </g>
  </symbol>
  <symbol viewBox="0 0 24 24" stroke-width="1" stroke="currentColor" fill="none"
          stroke-linecap="round" stroke-linejoin="round" id="SmileEmoji">
    <path stroke="none" d="M0 0h24v24H0z" fill="none" />
    <path d="M12 12m-9 0a9 9 0 1 0 18 0a9 9 0 1 0 -18 0" />
    <path d="M9 10l.01 0" />
    <path d="M15 10l.01 0" />
    <path d="M9.5 15a3.5 3.5 0 0 0 5 0" />
  </symbol>
  <symbol viewBox="0 0 24 24" stroke-width="1" stroke="currentColor" fill="none"
          stroke-linecap="round" stroke-linejoin="round" id="SadEmoji">
    <path stroke="none" d="M0 0h24v24H0z" fill="none" />
    <path d="M12 12m-9 0a9 9 0 1 0 18 0a9 9 0 1 0 -18 0" />
    <path d="M9 10l.01 0" />
    <path d="M15 10l.01 0" />
    <path d="M9.5 15.25a3.5 3.5 0 0 1 5 0" />
  </symbol>
  <symbol viewBox="0 0 24 24" stroke-width="1" stroke="currentColor" fill="none" stroke-linecap="round" stroke-linejoin="round" id="Coupon">
    <path stroke="none" d="M0 0h24v24H0z" fill="none" />
    <path d="M9 15l6 -6" />
    <circle cx="9.5" cy="9.5" r=".5" fill="currentColor" />
    <circle cx="14.5" cy="14.5" r=".5" fill="currentColor" />
    <path d="M5 7.2a2.2 2.2 0 0 1 2.2 -2.2h1a2.2 2.2 0 0 0 1.55 -.64l.7 -.7a2.2 2.2 0 0 1 3.12 0l.7 .7a2.2 2.2 0 0 0 1.55 .64h1a2.2 2.2 0 0 1 2.2 2.2v1a2.2 2.2 0 0 0 .64 1.55l.7 .7a2.2 2.2 0 0 1 0 3.12l-.7 .7a2.2 2.2 0 0 0 -.64 1.55v1a2.2 2.2 0 0 1 -2.2 2.2h-1a2.2 2.2 0 0 0 -1.55 .64l-.7 .7a2.2 2.2 0 0 1 -3.12 0l-.7 -.7a2.2 2.2 0 0 0 -1.55 -.64h-1a2.2 2.2 0 0 1 -2.2 -2.2v-1a2.2 2.2 0 0 0 -.64 -1.55l-.7 -.7a2.2 2.2 0 0 1 0 -3.12l.7 -.7a2.2 2.2 0 0 0 .64 -1.55v-1" />
  </symbol>
  <symbol viewBox="0 0 1032 724" stroke-width="1" id="Card">
    <path fill="currentColor" d="M 30 0 C 14 0 0 14 0 30 L 0 694 C 0 710 14 724 30 724 L 1002 724 C 1018 724 1032 710 1032 694 L 1032 30 C 1032 14 1018 0 1002 0 L 30 0 Z M 30 30 L 1002 30 L 1002 150 L 30 150 L 30 30 Z M 30 322 L 1002 322 L 1002 694 L 30 694 L 30 322 Z M 178 430 C 174 430 170 434 170 438 C 172 442 174 446 178 446 L 462 446 C 464 446 468 444 468 442 C 470 440 470 436 468 434 C 468 432 464 430 462 430 L 178 430 C 178 430 178 430 178 430 Z M 178 536 C 174 536 170 540 170 544 C 172 548 174 552 178 552 L 604 552 C 606 552 608 550 610 548 C 612 546 612 542 610 540 C 608 538 606 536 604 536 L 178 536 C 178 536 178 536 178 536 Z" />
  </symbol>
  <symbol viewBox="0 0 24 24" stroke-width="1" stroke="currentColor" fill="none" stroke-linecap="round" stroke-linejoin="round" id="StoreCredit">
    <path stroke="none" d="M0 0h24v24H0z" fill="none" />
    <path d="M9 14c0 1.657 2.686 3 6 3s6 -1.343 6 -3s-2.686 -3 -6 -3s-6 1.343 -6 3z" />
    <path d="M9 14v4c0 1.656 2.686 3 6 3s6 -1.344 6 -3v-4" />
    <path d="M3 6c0 1.072 1.144 2.062 3 2.598s4.144 .536 6 0c1.856 -.536 3 -1.526 3 -2.598c0 -1.072 -1.144 -2.062 -3 -2.598s-4.144 -.536 -6 0c-1.856 .536 -3 1.526 -3 2.598z" />
    <path d="M3 6v10c0 .888 .772 1.45 2 2" />
    <path d="M3 11c0 .888 .772 1.45 2 2" />
  </symbol>
  <symbol viewBox="0 0 24 24" stroke-width="1" stroke="currentColor" fill="none" stroke-linecap="round" stroke-linejoin="round" id="Bell">
    <path stroke="none" d="M0 0h24v24H0z" fill="none" />
    <path d="M10 5a2 2 0 1 1 4 0a7 7 0 0 1 4 6v3a4 4 0 0 0 2 3h-16a4 4 0 0 0 2 -3v-3a7 7 0 0 1 4 -6" />
    <path d="M9 17v1a3 3 0 0 0 6 0v-1" />
  </symbol>
  <symbol viewBox="0 0 24 24" stroke-width="1" stroke="currentColor" fill="none" stroke-linecap="round" stroke-linejoin="round" id="CircleTickFilled">
    <circle cx="12" cy="12" r="8" fill="#fff" />
    <path d="M17 3.34a10 10 0 1 1 -14.995 8.984l-.005 -.324l.005 -.324a10 10 0 0 1 14.995 -8.336zm-1.293 5.953a1 1 0 0 0 -1.32 -.083l-.094 .083l-3.293 3.292l-1.293 -1.292l-.094 -.083a1 1 0 0 0 -1.403 1.403l.083 .094l2 2l.094 .083a1 1 0 0 0 1.226 0l.094 -.083l4 -4l.083 -.094a1 1 0 0 0 -.083 -1.32z" stroke-width="0" fill="currentColor" />
  </symbol>
  <symbol viewBox="0 0 24 24" stroke-width="1" stroke="currentColor" fill="none" stroke-linecap="round" stroke-linejoin="round" id="Gift">
    <path stroke="none" d="M0 0h24v24H0z" fill="none" />
    <path d="M3 8m0 1a1 1 0 0 1 1 -1h16a1 1 0 0 1 1 1v2a1 1 0 0 1 -1 1h-16a1 1 0 0 1 -1 -1z" />
    <path d="M12 8l0 13" />
    <path d="M19 12v7a2 2 0 0 1 -2 2h-10a2 2 0 0 1 -2 -2v-7" />
    <path d="M7.5 8a2.5 2.5 0 0 1 0 -5a4.8 8 0 0 1 4.5 5a4.8 8 0 0 1 4.5 -5a2.5 2.5 0 0 1 0 5" />
  </symbol>
  <symbol viewBox="0 0 24 24" stroke-width="1" stroke="currentColor" fill="none" stroke-linecap="round" stroke-linejoin="round" id="Lock">
    <path stroke="none" d="M0 0h24v24H0z" fill="none" />
    <path d="M5 13a2 2 0 0 1 2 -2h10a2 2 0 0 1 2 2v6a2 2 0 0 1 -2 2h-10a2 2 0 0 1 -2 -2v-6z" />
    <path d="M11 16a1 1 0 1 0 2 0a1 1 0 0 0 -2 0" />
    <path d="M8 11v-4a4 4 0 1 1 8 0v4" />
  </symbol>
  <symbol viewBox="0 0 24 24" stroke-width="1" stroke="currentColor" fill="none" stroke-linecap="round" stroke-linejoin="round" id="Down">
    <path stroke="none" d="M0 0h24v24H0z" fill="none" />
    <path d="M6 9l6 6l6 -6" />
  </symbol>
  <symbol viewBox="0 0 16 16" id="CounterClockwise">
    <g fill="none">
        <g transform="translate(-864 -621) translate(210 493) translate(655 127) translate(0 2)">
          <circle cx="7" cy="7" r="6.611" stroke="#000" />
          <path fill="#000" d="M7.114.664c.215 0 .389.174.389.389v12.444c0 .215-.174.39-.39.39-.214 0-.388-.175-.388-.39V1.053c0-.215.174-.39.389-.39z" transform="rotate(45 7.114 7.275)" />
          <g stroke="#000">
          <path d="M7.371 5.504c0 2.028-1.644 3.671-3.671 3.671-2.028 0-3.672-1.643-3.672-3.671 0-2.028 1.644-3.672 3.672-3.672h1.553" transform="matrix(-1 0 0 1 10.889 2.333)" />
          <path d="M3.69 3.527l1.684-1.67c.014-.014.014-.036 0-.05L3.69.137" transform="matrix(-1 0 0 1 10.889 2.333)" />
        </g>
      </g>
    </g>
  </symbol>
  <symbol viewBox="0 0 20 18" fill="none" id="GiftItem">
    <path d="M8.626 16.707H4.729c-3.41 0-3.41 0-3.41-2.682L1 5.055c0-.148.143-.268.32-.268h13.21c.175 0 .318.12.318.268V6.31" stroke="#2D2D2D" stroke-width=".6" stroke-linecap="round" stroke-linejoin="round" />
    <path d="M5.206 4.787V3.75C5.206 2.231 6.423 1 7.924 1c1.502 0 2.719 1.232 2.719 2.751v1.036" stroke="#2D2D2D" stroke-width=".6" stroke-linejoin="round" />
    <path clip-rule="evenodd" d="M18.84 11.955H9.85a.3.3 0 0 1-.3-.3v-1.8a.3.3 0 0 1 .3-.3h8.99a.3.3 0 0 1 .3.3v1.8a.3.3 0 0 1-.3.3z" stroke="#2D2D2D" stroke-width=".6" stroke-linecap="round" />
    <path d="M18.541 11.955v3.363c0 .793-.642 1.436-1.434 1.436h-5.523a1.435 1.435 0 0 1-1.434-1.436v-3.363" stroke="#2D2D2D" stroke-width=".6" />
    <path clip-rule="evenodd" d="M13.662 7.699a.828.828 0 1 0-1.171 1.173c.323.323 1.855.684 1.855.684s-.36-1.533-.684-1.857z" stroke="#2D2D2D" stroke-width=".6" stroke-linecap="round" />
    <path clip-rule="evenodd" d="M15.029 7.699A.828.828 0 1 1 16.2 8.872c-.324.323-1.856.684-1.856.684s.36-1.533.684-1.857z" stroke="#2D2D2D" stroke-width=".6" stroke-linecap="round" />
    <path d="M14.345 9.432v7.322" stroke="#2D2D2D" stroke-width=".6" stroke-linecap="round" />
  </symbol>
  <symbol viewBox="0 0 24 24" stroke-width="1" stroke="currentColor" fill="none" stroke-linecap="round" stroke-linejoin="round" id="Notebook">
    <path stroke="none" d="M0 0h24v24H0z" fill="none" />
    <path d="M6 4h11a2 2 0 0 1 2 2v12a2 2 0 0 1 -2 2h-11a1 1 0 0 1 -1 -1v-14a1 1 0 0 1 1 -1m3 0v18" />
    <path d="M13 8l2 0" />
    <path d="M13 12l2 0" />
  </symbol>
  <symbol viewBox="0 0 29 20" id="AmberCard" stroke="none" fill="none">
    <rect stroke="#000" width="28" height="19" x=".5" y=".5" rx="1" />
    <path fill="#000" d="M6.22 12.5h.6l1.71 3.95h-.8l-.37-.9H5.64l-.35.9H4.5zm.9 2.44-.62-1.6-.62 1.6h1.23zm2.9-2.44 1.03 2.8 1.03-2.8h1.1v3.95h-.69v-3.17l-1.21 3.17h-.5L9.6 13.28v3.17h-.67V12.5h1.1zm5.58 0c.77 0 1.04.4 1.1.54.08.12.38 1-.57 1.32 1.19.26.81 1.34.72 1.48-.1.14-.33.59-1.37.6h-1.42V12.5zm-.21 1.6c.63 0 .72-.34.72-.53s-.03-.49-.78-.49h-.57v1.03h.63zm0 1.76c.86.02.9-.48.88-.6 0-.2 0-.55-.85-.55h-.66v1.15zm4.9-3.36v.61h-1.91v1h1.8v.6h-1.8v1.11h2.01v.63h-2.72V12.5zm2.16 0c.95 0 1.25.46 1.34.6.08.15.47 1.27-.79 1.6l1.06 1.75h-.85l-.92-1.67h-.5v1.67h-.71V12.5zm.75 1.13c0-.1 0-.54-.78-.54h-.64v1.11h.58c.82.03.85-.47.84-.57" />
    <path stroke="#000" d="M.5 5h27M.5 9h27" />
  </symbol>
  <symbol width="20" height="20" viewBox="0 -2 16 16" id="ID">
    <path d="M15.5 0H.5a.5.5 0 0 0-.5.5v11a.5.5 0 0 0 .5.5h15a.5.5 0 0 0 .5-.5V.5a.5.5 0 0 0-.5-.5M15 11H1V1h14ZM8 3.5a.5.5 0 0 1 .5-.5h5a.5.5 0 0 1 .5.5.5.5 0 0 1-.5.5h-5a.5.5 0 0 1-.5-.5m6 3a.5.5 0 0 1-.5.5h-4a.5.5 0 0 1-.5-.5.5.5 0 0 1 .5-.5h4a.5.5 0 0 1 .5.5m0 3a.5.5 0 0 1-.5.5h-3a.5.5 0 0 1-.5-.5.5.5 0 0 1 .5-.5h3a.5.5 0 0 1 .5.5M2.5 10h5a.5.5 0 0 0 .5-.5V9a2.99 2.99 0 0 0-1.562-2.616A2 2 0 0 0 7 5a2 2 0 0 0-2-2 2 2 0 0 0-2 2 2 2 0 0 0 .562 1.384A2.99 2.99 0 0 0 2 9v.5a.5.5 0 0 0 .5.5M4 5a1 1 0 0 1 1-1 1 1 0 0 1 1 1 1 1 0 0 1-1 1 1 1 0 0 1-1-1m1 2a2 2 0 0 1 2 2H3a2 2 0 0 1 2-2" />
  </symbol>
  <symbol width="20" height="20" fill="#fff" viewBox="0 0 26 23" id="Coins">
    <g stroke="#000">
      <path d="M11.5 2.5v17.8c0 1.2-2.5 2.2-5.5 2.2s-5.5-1-5.5-2.2V2.5" />
      <path d="M11.5 18c0 1.1-2.5 2-5.5 2S.5 19.1.5 18m11-2.5c0 1.1-2.5 2-5.5 2s-5.5-.9-5.5-2m11-2.5c0 1.1-2.5 2-5.5 2S.5 14.1.5 13m11-2.5c0 1.1-2.5 2-5.5 2s-5.5-.9-5.5-2m11-2.5c0 1.1-2.5 2-5.5 2S.5 9.1.5 8m11-2.5c0 1.1-2.5 2-5.5 2S.5 6.6.5 5.5M6 5C3 5 .5 4 .5 2.8.5 1.5 3 .5 6 .5s5.5 1 5.5 2.3C11.5 4 9 5 6 5zm19.5 7.5v7.8c0 1.2-2.5 2.2-5.5 2.2s-5.5-1-5.5-2.2v-7.8" />
      <path d="M25.5 18c0 1.1-2.5 2-5.5 2s-5.5-.9-5.5-2m11-2.5c0 1.1-2.5 2-5.5 2s-5.5-.9-5.5-2M20 15c-3 0-5.5-1-5.5-2.2 0-1.3 2.5-2.3 5.5-2.3s5.5 1 5.5 2.3C25.5 14 23 15 20 15z" />
    </g>
  </symbol>
  <symbol width="20" height="20" viewBox="0 0 24 24" id="EditProfile">
    <path d="M2 21h6a1 1 0 0 0 0-2H3.071A7.01 7.01 0 0 1 10 13a5.044 5.044 0 1 0-3.377-1.337A9.01 9.01 0 0 0 1 20a1 1 0 0 0 1 1m8-16a3 3 0 1 1-3 3 3 3 0 0 1 3-3m10.207 4.293a1 1 0 0 0-1.414 0l-6.25 6.25a1 1 0 0 0-.241.391l-1.25 3.75A1 1 0 0 0 12 21a1 1 0 0 0 .316-.051l3.75-1.25a1 1 0 0 0 .391-.242l6.25-6.25a1 1 0 0 0 0-1.414Zm-5 8.583-1.629.543.543-1.629 5.379-5.376 1.086 1.086Z" />
  </symbol>
  <symbol viewBox="0 0 31 20" id="Clients">
    <path stroke="currentColor" fill="currentColor" d="M18.5 16.1V20c0 .3-.2.5-.5.5H2a.5.5 0 01-.5-.5V16c0-2.8 3.8-5.1 8.5-5.1s8.5 2.3 8.5 5.1zM14.5 5a4.5 4.5 0 11-9 0 4.5 4.5 0 019 0zM21.1 14.2L23 14c3.3 0 6.5 1.4 6.5 3.4v2.4c0 .2-.2.3-.4.3h-8M26 9.5a3 3 0 11-6 0 3 3 0 016 0z" />
  </symbol>
  <symbol width="20" height="20" id="Exchange">
    <path d="M14.732 4.988a.644.644 0 0 1 0-.819.454.454 0 0 1 .708 0l4.242 4.91q.059.068.094.15a.578.578 0 0 1-.354 1.035H5.579a.579.579 0 1 1 0-1.157h12.714zm-4.464 14.024a.645.645 0 0 1 0 .819.454.454 0 0 1-.708 0l-4.242-4.91a.6.6 0 0 1-.094-.15.578.578 0 0 1 .355-1.035h13.843a.578.578 0 1 1 0 1.157H6.707z" />
  </symbol>
  <symbol width="19" height="19" viewBox="0 0 25 19" fill="#fff" id="Book">
    <path d="M12.5 1.4a20.8 20.8 0 0 1 12 0v17.1a21.4 21.4 0 0 0-12 0 21.4 21.4 0 0 0-12 0V1.4C1.7.8 3.6.5 6.1.5s4.6.3 6.4.9zM9.5 5h-6m9 13V1m-3 8h-6m6 4h-6m18-8h-6m6 4h-6m6 4h-6" stroke="#000" />
  </symbol>
  <symbol width="19" height="19" viewBox="0 0 26 26" fill="#fff" id="Settings">
    <g stroke="#000">
      <path d="m23.295 10.017 2.055-1.358c.107-.069.197-.552.122-.653l-3.231-4.351a.516.516 0 0 0-.692-.116l-2.066 1.365a11 11 0 0 0-3.17-1.565V.969A.484.484 0 0 0 15.816.5h-5.632c-.13-.003-.495.341-.498.468v2.37a11 11 0 0 0-3.17 1.566L4.452 3.54a.516.516 0 0 0-.692.115L.528 8.007c-.076.101.014.585.122.653l2.055 1.358a9.6 9.6 0 0 0 0 5.967L.65 17.34c-.107.069-.197.553-.121.654l3.231 4.352a.515.515 0 0 0 .692.114l2.066-1.364a11 11 0 0 0 3.17 1.565v2.37c0 .259.222.469.497.469h5.632a.484.484 0 0 0 .498-.468V22.66a10.9 10.9 0 0 0 3.168-1.566l2.067 1.365a.516.516 0 0 0 .692-.114l3.231-4.352c.076-.101-.014-.585-.121-.654l-2.056-1.357c.579-2.012.579-4.032 0-5.966z" />
      <circle cx="13" cy="13" r="4" />
    </g>
  </symbol>
  <symbol width="20" height="20" viewBox="0 0 23 25" fill="none" id="Logout">
    <path d="M6 8.2v-7c0-.4.3-.7.7-.7h14.1c.4 0 .7.3.7.7v17.9c0 2.4-1.8 4.4-4.2 4.4h-7c-2.4 0-4.3-2-4.3-4.4v-3.8m6.5-3.8H1m2.5 4-3-4 3-4" stroke="currentColor" />
  </symbol>
  <symbol width="43" viewBox="0 0 29 20" fill="#fff" id="visa">
    <rect stroke="#000" width="28" height="19" x=".5" y=".5" rx="1" />
    <path fill="#1A1F71" d="M12.2 7.3h1.5l-1 6.4h-1.5zm5 0c-1.6 0-2.8.9-2.8 2 0 1 .9 1.4 1.5 1.7.7.3.9.5.9.8 0 .4-.5.6-1 .6A3.8 3.8 0 0 1 14 12l-.3 1.3c.4.2 1.2.4 2 .4 1.7 0 2.8-.9 2.8-2.1 0-.7-.4-1.3-1.4-1.7-.6-.3-1-.5-1-.8 0-.2.4-.5 1-.5l1.5.3.2-1.3a4.4 4.4 0 0 0-1.5-.3zm3.8 4.1L22 9l.5 2.4zm2-4h-1.2c-.4 0-.7 0-.9.5l-2.4 5.8h1.7l.4-1h2l.2 1h1.5L23 7.3zM8.1 11.6l-.1-1c-.3-1-1.3-2-2.3-2.6l1.5 5.6h1.7l2.6-6.4H9.7z" />
    <path fill="#FA9B00" d="M4 7.3v.2c2 .5 3.3 1.8 4 3.4l-.6-3c-.1-.4-.4-.6-.8-.6z" />
  </symbol>
  <symbol width="43" viewBox="0 0 29 20" fill="#fff" id="master-card">
    <rect stroke="#000" width="28" height="19" x=".5" y=".5" rx="1" />
    <path fill="#C00" d="M9.92 16.24A6.4 6.4 0 0 1 3.5 9.87 6.4 6.4 0 0 1 9.92 3.5a6.4 6.4 0 0 1 6.43 6.37 6.4 6.4 0 0 1-6.43 6.37" />
    <path fill="#F90" d="M13.59 5.82h1.3c.17.22.33.44.48.68H13.1c-.14.22-.26.44-.37.67h3.01c.1.22.2.45.28.68h-3.56c-.08.22-.14.44-.2.67h3.94a6.37 6.37 0 0 1-.18 3.38h-3.56c.07.23.16.45.27.67h3.01a6 6 0 0 1-.37.68H13.1c.15.23.31.46.49.67h1.3c-.2.24-.42.47-.65.68a6.43 6.43 0 0 0 10.73-4.73 6.43 6.43 0 0 0-11.39-4.05z" />
    <path fill="#FFF" d="M6.9 11.55h-.69l.4-2.48-.9 2.48h-.47l-.06-2.47-.42 2.47h-.65l.55-3.23h1l.03 2 .67-2h1.09l-.54 3.23zm1.72-1.17-.15-.01c-.4 0-.6.13-.6.4 0 .16.1.27.25.27.29 0 .5-.27.5-.66m-.07 1.17.02-.27a.88.88 0 0 1-.73.32c-.38 0-.64-.3-.64-.72 0-.64.45-1.02 1.22-1.02l.29.02a.7.7 0 0 0 .02-.17c0-.17-.12-.24-.44-.24-.25 0-.5.04-.74.12l.1-.59c.34-.1.57-.14.83-.14.6 0 .92.27.92.77 0 .4-.25 1.72-.27 1.92zm9.93-3.15-.11.7a1.3 1.3 0 0 0-.62-.17c-.52 0-.89.5-.89 1.21 0 .5.25.79.65.79.17 0 .36-.05.6-.17l-.13.74c-.25.07-.42.1-.61.1-.75 0-1.22-.54-1.22-1.4 0-1.16.64-1.96 1.57-1.96.2 0 .46.05.77.16zm1.13 1.98-.16-.01c-.4 0-.6.13-.6.4 0 .16.1.27.26.27.28 0 .49-.27.5-.66m-.07 1.17.01-.27a.88.88 0 0 1-.73.32c-.38 0-.64-.3-.64-.72 0-.64.46-1.02 1.23-1.02l.28.02a.6.6 0 0 0 .03-.17c0-.17-.12-.24-.45-.24-.25 0-.5.04-.73.12l.1-.59c.34-.1.57-.14.83-.14.6 0 .91.27.91.77 0 .33-.24 1.65-.26 1.92zm-7.81.05c-.36 0-.55-.2-.55-.58-.03-.2.4-2.5.4-2.5h.69l-.08.4h.36l-.1.63h-.36c-.08.5-.2 1.13-.2 1.2 0 .14.08.2.24.2.08 0 .14 0 .2-.02l-.1.58c-.19.06-.34.09-.5.09m1.91 0c-.77 0-1.18-.4-1.18-1.18 0-.9.52-1.56 1.22-1.56.57 0 .93.37.93.95 0 .2-.02.38-.08.65h-1.38c-.05.38.2.54.6.54.25 0 .47-.05.72-.17l-.11.66c-.23.07-.47.1-.71.1zm.33-1.67c0-.05.07-.47-.33-.47-.22 0-.38.17-.44.47zm-4.42-.18c0 .33.16.56.53.74.28.13.33.17.33.29 0 .16-.13.23-.4.23-.22 0-.43-.03-.63-.1l-.1.6c.16.04.3.07.73.09.74 0 1.08-.28 1.08-.88 0-.36-.14-.58-.5-.74-.29-.13-.32-.16-.32-.28 0-.14.12-.22.34-.22.14 0 .33.02.5.04l.1-.6c-.2-.04-.4-.05-.61-.06-.78 0-1.05.4-1.05.9zm13.6 1.8.03-.25c-.19.2-.39.3-.64.3-.5 0-.84-.44-.84-1.1 0-.87.52-1.6 1.13-1.6.27 0 .48.1.67.35l.15-.93h.69l-.53 3.23zm-.37-.6c.32 0 .55-.37.55-.9 0-.33-.13-.5-.37-.5-.31 0-.54.36-.54.87 0 .35.12.52.36.52zm-2.04-2.03c-.08.81-.24 1.64-.36 2.45l-.03.18h.7c.25-1.6.3-1.92.7-1.88.06-.33.18-.62.26-.76-.29-.06-.45.1-.67.4.02-.12.05-.26.05-.39h-.64zm-5.73 0c-.08.6-.21 1.47-.4 2.63h.7c.25-1.6.3-1.92.7-1.88.06-.33.18-.62.26-.76-.29-.06-.45.1-.67.4.02-.12.05-.26.04-.39z" />
  </symbol>
  <symbol width="43" viewBox="0 0 29 20" fill="#fff" id="american-express">
    <rect fill="#306FC5" width="28" height="19" rx="1" />
    <path d="m10.79 9.17.48.53.51-.53h2.2c.19 0 .54.02.75.14l.1.07v-.21h1.97c.16 0 .48.02.7.14l.11.07v-.21h3v.21c.14-.12.4-.19.63-.2l.11-.01h1.69v.21l.05-.03c.07-.05.22-.14.37-.17l.09-.01h1.76v1.7q.15.255.18.54v.25c-.03.41-.24.76-.58.96-.18.11-.44.16-.72.17h-1.74v-.21c-.15.12-.42.2-.7.2l-.14.01h-4.99v-.81c0-.1 0-.1-.06-.11h-.12v.92h-1.65v-.96c-.2.09-.46.1-.68.1l-.35.01v.82h-2.05l-.46-.52-.53.52H7.49v-3.6h3.3zm6.01.57h-1.54v2.52h.63v-.92h.76c.44-.04.44.3.44.43v.49h.63c.03-.52-.01-.84-.1-.96-.05-.07-.16-.14-.34-.21a.7.7 0 0 0 .44-.68c0-.28-.15-.67-.92-.67m8.11-.04H23.7c-.06 0-.85 0-.88.75-.03.78.8.75 1.28.78.11 0 .3.04.3.25-.02.18-.13.26-.33.25h-1.18v.53h1.18c1.12-.03.98-.87.98-.91-.14-.66-.86-.62-1.24-.62-.05 0-.37 0-.37-.21s.19-.21.26-.21h1.21v-.6zm-2.38 0h-1.21c-.66 0-.88.4-.88.75 0 .64.47.74.96.76.44.03.57 0 .61.27 0 .16-.1.25-.33.25h-1.17v.53h1.17c.63 0 .96-.25.96-.78 0-.25-.08-.7-.75-.74h-.46c-.08 0-.35 0-.37-.22-.02-.21.18-.21.25-.21h1.22v-.6zm-2.39.04H18.1v2.52h2.05v-.53h-1.43v-.5h1.4v-.5h-1.4v-.46h1.43v-.53zm-9.64.03H8.1v2.49h2.35l.8-.82.75.82h1.2v-.92h.73c.55 0 1.07-.15 1.07-.86 0-.09.03-.64-.88-.7h-2.06l-.79.83-.78-.84zm2.09.25v2.03l-.96-1.03zm-2.39.25.66.75-.7.74h-1.5v-.53h1.36v-.5H8.66v-.46zm6.54.04c.08 0 .16 0 .21.03.07.04.15.12.11.27 0 .1-.02.19-.07.24l-.04.03a.5.5 0 0 1-.21.04h-.81v-.62h.81zm-2.76-.04c.22 0 .37.1.4.32 0 .19-.1.3-.28.31l-.08.01h-.8v-.64zm.37-5.26q.36 0 .6.15l.1.06v-.21h1.65v.21c.24-.12.51-.18.83-.2l.2-.01h2.34l.22.43V5h1.72l.22.43V5h1.65v3.48h-1.72l-.33-.53v.53H19.7l-.22-.57h-.51l-.22.57h-1.1a2.3 2.3 0 0 1-.9-.17l-.1-.04v.21h-2.63V7.7c0-.08 0-.1-.04-.1h-.1v.92h-5.1V8.1l-.19.43H7.53l-.19-.43v.43H5.22L5 7.96h-.48l-.23.57H2.38l.85-1.85.74-1.67h1.61l.19.43V5h1.87l.4.89.4-.89h5.9zm3.96.5c-.83-.04-1.33.05-1.5.28-.26.29-.32.64-.33 1-.03.8.37 1.22 1.2 1.24h.7l.22-.57h1.29l.21.54h1.25V6.1L22.53 8h.8V5.54h-.62V7.3l-1.06-1.75h-.92v2.38L19.7 5.54h-.91l-.85 1.96c-.59.07-.88-.18-.88-.75 0-.47.22-.7.66-.7h.59V5.5zm-5.98 0h-2.05v2.52h2.05V7.5H10.9V7h1.4v-.5h-1.4v-.46h1.43zm-7.08 0h-.91L3.25 8h.65l.25-.54H5.4l.26.54H6.9V6.04L7.78 8h.54l.9-1.96V8h.58V5.5h-.99l-.75 1.75-.33-.73-.48-1.01h-.97v2.38L5.25 5.5zm10.93 0h-.62V8h.62V5.5zm-1.9 0h-1.55V8h.63v-.9h.75c.27 0 .46.07.46.52V8h.55v-.58c0-.14-.04-.49-.4-.6a.7.7 0 0 0 .43-.65c0-.38-.17-.66-.87-.66m-9.5.42.4 1h-.8zm14.48 0 .4 1h-.84zm-5.09.11c.37 0 .35.25.34.29-.02.13-.02.32-.34.32h-.81v-.6h.81z" />
  </symbol>
  <symbol width="43" viewBox="0 0 48 16" fill="#fff" id="mada">
    <path fill="#84B740" d="M0 9.2h20.3V16H0z" />
    <path fill="#259BD6" d="M0 0h20.3v6.8H0z" />
    <path fill="#27292D" d="M40.5 14.6h-.7c-.6 0-1.2-.2-1.2-1.5 0-.6.1-1.5 1.1-1.5.2 0 .4 0 .7.2h.1zm.2-6.4h-.2v2.4h-.1l-1-.2c-2 0-2.4 1.5-2.4 2.7 0 1.8 1 2.7 2.7 2.7.7 0 1.2 0 1.7-.2s.7-.4.7-.9V8zm5.7 6.4h-.1l-.3.1-.7.1c-.5 0-.8-.2-.8-.6 0-.2.1-.7.9-.7h1zm-.7-4.2c-.6 0-1.2 0-2 .3l-.5.2.1 1.1.5-.1 1.7-.3c.2 0 .9 0 .9.7v.3h-1c-1.6 0-2.4.5-2.4 1.7 0 1 .7 1.6 1.9 1.6l1.3-.2h.2l1.5.3v-3.8c0-1.2-.8-1.8-2.2-1.8m-11 4.2-.4.1a3 3 0 0 1-.7.1c-.5 0-.8-.2-.8-.6 0-.2.2-.7 1-.7h.9zm-.7-4.2c-.6 0-1.2 0-2 .3l-.5.2.2 1.1.5-.1c.5-.2 1.1-.3 1.6-.3.2 0 .9 0 .9.7v.3h-1c-1.6 0-2.4.5-2.4 1.7 0 1 .7 1.6 2 1.6l1.3-.2h.1l1.5.3v-3.8c0-1.2-.7-1.8-2.2-1.8m-5.6 0a4 4 0 0 0-1.7.3q-.6-.3-1.5-.3a6 6 0 0 0-1.8.2c-.5.2-.7.4-.7 1v4.2h1.6v-4h.1l.7-.1c.5 0 .7.2.7.7v3.4h1.6V12l-.1-.1c.3-.2.6-.2.9-.2s.7.1.7.7v3.4h1.5v-3.5c0-1.3-.6-2-2-2m16.8-5.9h-1V1.7l-.1-.1.2-.1h.1c.4-.2.7-.2.9-.2 1 0 1 .9 1 1.6 0 1.2-.6 1.5-1.1 1.5m0-4.4c-1 0-2 .3-2.2.7-.2.3-.3.6-.3 1v2.5l-.1.1h-3V2.8c0-1.8-1-2.7-2.5-2.7h-1.5l-.1 1.1h1.4c.8 0 1.2.7 1.2 1.7v1.6H35c0 .3 0 .7-.2 1h8.6l1.6.2c1.7 0 2.8-1 2.8-2.8 0-1.7-1-2.9-2.7-2.9M31.6 6.3h.1c1.7 0 2.5-.6 2.5-2 0-1-.7-1.7-2-1.7h-1.5c-.5 0-.7-.3-.7-.7 0-.3 0-.7.8-.7h3.4l.2-1.1h-3.5c-1.6 0-2.5.7-2.5 1.8s.7 1.7 2 1.7h1.5c.5 0 .7.4.7.8 0 .2 0 .7-.8.7h-6.1c-.8 0-1.3-.4-1.3-1.4V3c0-1 .4-1.7 1.3-1.7H27l.2-1.1h-2c-1.5 0-2.5 1-2.6 2.7v.8c0 1.7 1 2.6 2.6 2.6z" />
  </symbol>
  <symbol width="20" height="20" viewBox="0 0 24 24" fill="none" id="AmberBag">
    <path d="M9 11V6C9 4.34315 10.3431 3 12 3C13.6569 3 15 4.34315 15 6V10.9673M10.4 21H13.6C15.8402 21 16.9603 21 17.816 20.564C18.5686 20.1805 19.1805 19.5686 19.564 18.816C20 17.9603 20 16.8402 20 14.6V12.2C20 11.0799 20 10.5198 19.782 10.092C19.5903 9.71569 19.2843 9.40973 18.908 9.21799C18.4802 9 17.9201 9 16.8 9H7.2C6.0799 9 5.51984 9 5.09202 9.21799C4.71569 9.40973 4.40973 9.71569 4.21799 10.092C4 10.5198 4 11.0799 4 12.2V14.6C4 16.8402 4 17.9603 4.43597 18.816C4.81947 19.5686 5.43139 20.1805 6.18404 20.564C7.03968 21 8.15979 21 10.4 21Z" stroke="#000000" stroke-width="2" stroke-linecap="round" stroke-linejoin="round" />
  </symbol>
  <symbol width="20" height="20" viewBox="0 0 24 24" fill="none" id="AmberCall">
    <path d="M5.25366 13.9999L16.2419 14.0011C16.3459 14.1727 16.4732 14.3321 16.6227 14.474L17.3413 15.1561C17.3004 15.315 17.2471 15.4742 17.1814 15.6338C17.0589 15.5492 16.9118 15.4999 16.7532 15.4999H5.25366C4.83945 15.4999 4.50366 15.8357 4.50366 16.2499V17.1572C4.50366 17.8129 4.78965 18.4359 5.28683 18.8634C6.54491 19.945 8.44092 20.5011 11.0001 20.5011C11.2918 20.5011 11.5748 20.4938 11.8493 20.4794C11.931 20.9259 12.1441 21.3505 12.4808 21.6886L12.7083 21.9167C12.1668 21.973 11.5973 22.0011 11.0001 22.0011C8.11062 22.0011 5.87181 21.3445 4.30894 20.0008C3.48032 19.2884 3.00366 18.25 3.00366 17.1572V16.2499C3.00366 15.0073 4.01102 13.9999 5.25366 13.9999ZM17.0106 12.245L17.5139 11.0581C17.75 10.5015 18.3154 10.1987 18.8699 10.3143L18.9884 10.3455L19.6187 10.5469C20.2436 10.7466 20.7222 11.2819 20.8768 11.9542C21.2441 13.5518 20.8034 15.4969 19.5548 17.7896C18.3079 20.0789 16.9414 21.4553 15.455 21.9189C14.8779 22.099 14.258 21.9682 13.7916 21.5767L13.6684 21.4635L13.1897 20.9829C12.7749 20.5664 12.6894 19.9076 12.9676 19.3921L13.0382 19.2759L13.7597 18.2159C14.0436 17.7989 14.5292 17.6015 14.9971 17.7012L15.1241 17.7358L16.456 18.18C16.9876 17.7778 17.4307 17.2715 17.7856 16.6612C18.0897 16.138 18.2887 15.6078 18.3824 15.0705L18.4205 14.8013L17.3115 13.7487C16.9462 13.4019 16.8135 12.862 16.9628 12.376L17.0106 12.245L17.5139 11.0581L17.0106 12.245ZM11.0001 2.00462C13.7615 2.00462 16.0001 4.2432 16.0001 7.00462C16.0001 9.76605 13.7615 12.0046 11.0001 12.0046C8.2387 12.0046 6.00012 9.76605 6.00012 7.00462C6.00012 4.2432 8.2387 2.00462 11.0001 2.00462ZM11.0001 3.50462C9.06712 3.50462 7.50012 5.07163 7.50012 7.00462C7.50012 8.93762 9.06712 10.5046 11.0001 10.5046C12.9331 10.5046 14.5001 8.93762 14.5001 7.00462C14.5001 5.07163 12.9331 3.50462 11.0001 3.50462Z" fill="#212121" />
  </symbol>
  <symbol fill="#000000" width="20" height="20" viewBox="0 0 32 32" id="AmberDiamond">
    <path d="M31.835 9.233l-4.371-8.358c-0.255-0.487-0.915-0.886-1.464-0.886h-10.060c-0.011-0.001-0.022-0.003-0.033-0.004-0.009 0-0.018 0.003-0.027 0.004h-9.88c-0.55 0-1.211 0.398-1.47 0.883l-4.359 8.197c-0.259 0.486-0.207 1.248 0.113 1.696l15.001 20.911c0.161 0.224 0.375 0.338 0.588 0.338 0.212 0 0.424-0.11 0.587-0.331l15.247-20.758c0.325-0.444 0.383-1.204 0.128-1.691zM29.449 8.988h-5.358l2.146-6.144zM17.979 1.99h6.436l-1.997 5.716zM20.882 8.988h-9.301l4.396-6.316zM9.809 8.034l-2.006-6.044h6.213zM21.273 10.988l-5.376 15.392-5.108-15.392h10.484zM13.654 25.971l-10.748-14.983h5.776zM23.392 10.988h5.787l-11.030 15.018zM5.89 2.575l2.128 6.413h-5.539z" />
  </symbol>
  <symbol width="20" height="20" viewBox="0 0 24 24" fill="none" id="AmberGift">
    <path d="M3 9.5C3 9.03534 3 8.80302 3.03843 8.60982C3.19624 7.81644 3.81644 7.19624 4.60982 7.03843C4.80302 7 5.03534 7 5.5 7H12H18.5C18.9647 7 19.197 7 19.3902 7.03843C20.1836 7.19624 20.8038 7.81644 20.9616 8.60982C21 8.80302 21 9.03534 21 9.5V9.5V9.5C21 9.96466 21 10.197 20.9616 10.3902C20.8038 11.1836 20.1836 11.8038 19.3902 11.9616C19.197 12 18.9647 12 18.5 12H12H5.5C5.03534 12 4.80302 12 4.60982 11.9616C3.81644 11.8038 3.19624 11.1836 3.03843 10.3902C3 10.197 3 9.96466 3 9.5V9.5V9.5Z" stroke="#000000" stroke-width="2" stroke-linejoin="round" />
    <path d="M4 12V16C4 17.8856 4 18.8284 4.58579 19.4142C5.17157 20 6.11438 20 8 20H9H15H16C17.8856 20 18.8284 20 19.4142 19.4142C20 18.8284 20 17.8856 20 16V12" stroke="#000000" stroke-width="2" stroke-linecap="round" stroke-linejoin="round" />
    <path d="M12 7V20" stroke="#000000" stroke-width="2" stroke-linecap="round" stroke-linejoin="round" />
    <path d="M11.3753 6.21913L9.3959 3.74487C8.65125 2.81406 7.26102 2.73898 6.41813 3.58187C5.1582 4.8418 6.04662 7 7.82843 7L11 7C11.403 7 11.6271 6.53383 11.3753 6.21913Z" stroke="#000000" stroke-width="2" stroke-linecap="round" stroke-linejoin="round" />
    <path d="M12.6247 6.21913L14.6041 3.74487C15.3488 2.81406 16.739 2.73898 17.5819 3.58187C18.8418 4.8418 17.9534 7 16.1716 7L13 7C12.597 7 12.3729 6.53383 12.6247 6.21913Z" stroke="#000000" stroke-width="2" stroke-linecap="round" stroke-linejoin="round" />
  </symbol>
  <symbol id="Link" width="25" height="24" viewBox="0 0 25 24" fill="none"><path d="M15.9716 12.5916C14.8568 13.7064 13.0452 13.7064 11.9315 12.5916C11.7455 12.4057 11.467 12.4057 11.2811 12.5916C11.0951 12.7776 11.0951 13.056 11.2811 13.242C12.024 13.9849 12.9991 14.3568 13.9516 14.3568C14.904 14.3568 15.9018 13.9849 16.6221 13.242L19.4087 10.4554C20.129 9.73514 20.5235 8.7836 20.5235 7.78488C20.5235 6.78615 20.129 5.81102 19.4087 5.11437C17.9229 3.62854 15.5309 3.62854 14.044 5.11437L11.954 7.20433C11.7681 7.39029 11.7681 7.66877 11.954 7.85473C12.14 8.04068 12.4185 8.04068 12.6044 7.85473L14.6944 5.76477C15.8092 4.64993 17.6208 4.64993 18.7345 5.76477C19.2688 6.29905 19.5709 7.01837 19.5709 7.78488C19.5709 8.55138 19.2688 9.2707 18.7345 9.80499L15.9716 12.5916Z" fill="currentColor"/><path d="M8.40145 10.7575L5.61483 13.5441C4.89459 14.2644 4.5 15.2159 4.5 16.2147C4.5 17.2134 4.89459 18.1885 5.61483 18.8852C6.35775 19.6281 7.33288 20 8.28534 20C9.26047 20 10.2356 19.6281 10.9558 18.8852L13.0458 16.7952C13.2318 16.6092 13.2318 16.3308 13.0458 16.1448C12.8599 15.9588 12.5814 15.9588 12.3954 16.1448L10.3055 18.2348C9.19062 19.3496 7.37904 19.3496 6.26532 18.2348C5.73103 17.7005 5.42897 16.9812 5.42897 16.2147C5.42897 15.4481 5.73103 14.7288 6.26532 14.1945L9.05194 11.4079C10.1668 10.2931 11.9784 10.2931 13.0921 11.4079C13.278 11.5939 13.5565 11.5939 13.7425 11.4079C13.9284 11.222 13.9284 10.9435 13.7425 10.7575C12.2793 9.29437 9.86466 9.29437 8.40145 10.7575Z" fill="currentColor"/></symbol>
  <svg id='AddressWithMap' version="1.1" viewBox="0 0 192 192.01"><defs><clipPath clipPathUnits="objectBoundingBox" id="a"><path transform="matrix(.89346 0 0 -.90205 632.34 2313.7)" d="m1486.1 1425.8a1043.8 1033.8 0 1 1-2087.5 0 1043.8 1033.8 0 1 1 2087.5 0z" fill="none" stroke="#fff" stroke-width="103.88"/></clipPath></defs><g transform="translate(133.14 -176.36)"><g transform="matrix(.70268 0 0 .70268 -37.52 137.87)"><g transform="matrix(.1465 0 0 -.1465 -150 341.94)" clip-path="a"><g fill-rule="evenodd"><path d="m28.364 2026.8h2e3v-2e3h-2e3v2e3z" fill="#f3f4f4"/><path d="m478.36 746.75h210v-190h-210v190z" fill="#e6e6e6"/><path d="m1878.4 196.75h150v-170h-150v170z" fill="#7fc7ed"/><path d="m738.36 456.75h260v-209.67h-260v209.67z" fill="#e6e6e6"/><path d="m1538.4 2026.8h290v-220h-290v220z" fill="#7fc7ed"/><path d="m1168.4 1756.8h660v-810h-660v810z" fill="#e6e6e6"/><path d="m28.364 1756.8h140v-960h-140v960z" fill="#e6e6e6"/><path d="m478.36 196.75h210v-170h-210v170z" fill="#83cdac"/><path d="m1118.4 1506.8h-950v20h950v-20z" fill="#ececec"/><path d="m738.36 996.75h-570v20h570v-20z" fill="#ececec"/><path d="m918.36 1906.8h-890v20h890v-20z" fill="#ececec"/><path d="m478.36 606.75h-450v20h450v-20z" fill="#ececec"/><path d="m2028.4 1586.8h-150v20h150v-20z" fill="#ececec"/><path d="m2028.4 1016.8h-150v20h150v-20z" fill="#ececec"/><path d="m2028.4 766.75h-150v20h150v-20z" fill="#ececec"/><path d="m738.36 346.75h-710v20h710v-20z" fill="#ececec"/><path d="m1828.4 656.75h-780v20h780v-20z" fill="#ececec"/><path d="m898.36 2026.8h20v-910h-20v910z" fill="#ececec"/><path d="m898.36 196.75h20v-170h-20v170z" fill="#ececec"/><path d="m1578.4 676.75h20v-430h-20v430z" fill="#ececec"/><path d="m2028.4 1756.8h-2e3v50h2e3v-50z" fill="#fff"/><path d="m738.36 746.75h-710v50h710v-50z" fill="#fff"/><path d="m1878.4 896.75h-1147v50h1147v-50z" fill="#fff"/><path d="m2028.4 196.75h-2e3v50h2e3v-50z" fill="#fff"/><path d="m2028.4 1116.8h-1340v50h1340v-50z" fill="#fff"/><path d="m168.36 2026.8h50v-2e3h-50v2e3z" fill="#fff"/><path d="m1828.4 2026.8h50v-2e3h-50v2e3z" fill="#fff"/><path d="m688.36 2026.8h50v-2e3h-50v2e3z" fill="#fff"/><path d="m1118.4 1806.8h50v-910h-50v910z" fill="#fff"/><path d="m998.36 896.75h50v-700h-50v700z" fill="#fff"/><path d="m1488.4 2026.8h50v-910h-50v910z" fill="#fff"/><path d="m378.36 2026.8h100v-2e3h-100v2e3z" fill="#ccc"/><path d="m1328.4 2026.8h100v-2e3h-100v2e3z" fill="#ccc"/><path d="m2028.4 1286.8h-2e3v100h2e3v-100z" fill="#ccc"/><path d="m2027.4 456.75h-1549v100h1549v-100z" fill="#ccc"/></g></g></g><g transform="translate(-987,-60) scale(1.15)" stroke-width="1.5"><path d="m815.14 266.81c-2.2703 2.423-3.6923 5.9525-3.6371 9.2724 0.11536 6.9376 3.2424 9.5639 8.2433 19.112 1.8014 4.2017 3.6815 8.6476 5.4697 16.011 0.24851 1.0862 0.49087 2.095 0.60298 2.1824 0.11202 0.0875 0.35447-0.92499 0.60297-2.0111 1.7882-7.3634 3.6683-11.806 5.4697-16.007 5.0009-9.5484 8.128-12.175 8.2433-19.112 0.0553-3.3199-1.3703-6.853-3.6406-9.2759-2.5934-2.7678-6.5051-4.8162-10.675-4.9018-4.1703-0.0857-8.0855 1.9627-10.679 4.7306z" fill="#EA4335" stroke="#333"/><circle cx="825.82" cy="276.34" r="6.3" fill="#B41412"/></g></g></svg>
  <svg id='AddressWithoutMap' version="1.1" viewBox="0 0 192 192.01" ><defs><clipPath clipPathUnits="objectBoundingBox" id="a"><path transform="matrix(.89346 0 0 -.90205 632.34 2313.7)" d="m1486.1 1425.8a1043.8 1033.8 0 1 1-2087.5 0 1043.8 1033.8 0 1 1 2087.5 0z" fill="none" stroke="#fff" stroke-width="103.88"/></clipPath></defs><g transform="translate(133.14 -176.36)"><g transform="matrix(.70268 0 0 .70268 -37.52 137.87)"><g transform="matrix(.1465 0 0 -.1465 -150 341.94)" clip-path="a"><path d="m28.364 2026.8h2e3v-2e3h-2e3v2e3z" fill-rule="evenodd"/></g></g><g transform="translate(-987,-60) scale(1.15)" stroke="#fff" stroke-width="1.1"><path d="m815.14 266.81c-2.2703 2.423-3.6923 5.9525-3.6371 9.2724 0.11536 6.9376 3.2424 9.5639 8.2433 19.112 1.8014 4.2017 3.6815 8.6476 5.4697 16.011 0.24851 1.0862 0.49087 2.095 0.60298 2.1824 0.11202 0.0875 0.35447-0.92499 0.60297-2.0111 1.7882-7.3634 3.6683-11.806 5.4697-16.007 5.0009-9.5484 8.128-12.175 8.2433-19.112 0.0553-3.3199-1.3703-6.853-3.6406-9.2759-2.5934-2.7678-6.5051-4.8162-10.675-4.9018-4.1703-0.0857-8.0855 1.9627-10.679 4.7306z"/><circle cx="825.82" cy="276.34" r="6.3"/></g></g></svg>
  <symbol viewBox="0 0 24 24" stroke-width="1" stroke="currentColor" fill="none" stroke-linecap="round" stroke-linejoin="round" id="GeolocationFilled"><path stroke="none" d="M0 0h24v24H0z" fill="none"></path><path d="M20.891 2.006l.106 -.006l.13 .008l.09 .016l.123 .035l.107 .046l.1 .057l.09 .067l.082 .075l.052 .059l.082 .116l.052 .096c.047 .1 .077 .206 .09 .316l.005 .106c0 .075 -.008 .149 -.024 .22l-.035 .123l-6.532 18.077a1.55 1.55 0 0 1 -1.409 .903a1.547 1.547 0 0 1 -1.329 -.747l-.065 -.127l-3.352 -6.702l-6.67 -3.336a1.55 1.55 0 0 1 -.898 -1.259l-.006 -.149c0 -.56 .301 -1.072 .841 -1.37l.14 -.07l18.017 -6.506l.106 -.03l.108 -.018z" stroke-width="0" fill="currentColor"></path></symbol>
  <symbol viewBox="0 0 24 24" stroke-width="1" stroke="currentColor" fill="none" stroke-linecap="round" stroke-linejoin="round" id="Geolocation"><path stroke="none" d="M0 0h24v24H0z" fill="none"></path><path d="M21 3l-6.5 18a.55 .55 0 0 1 -1 0l-3.5 -7l-7 -3.5a.55 .55 0 0 1 0 -1l18 -6.5"></path></symbol>
  <symbol viewBox="0 0 23 24" fill="none" id="UserLocationMarker">
    <path d="M11.0338 0C17.1089 0 22.0338 4.92487 22.0338 11C22.0338 16.3124 18.2679 20.7452 13.2601 21.7745L11.0338 24L8.8079 21.7747C3.79985 20.7455 0.0337524 16.3125 0.0337524 11C0.0337524 4.92487 4.9586 0 11.0338 0Z"
    fill="currentColor"></path>
    <path d="M11.0338 11.21C13.363 11.21 15.2838 12.3618 15.2838 13.8581V15.4987C15.2838 15.7756 15.0603 16.0014 14.7829 16.0014H7.28465C7.00725 16.0014 6.78375 15.7756 6.78375 15.4987V13.8581C6.78375 12.3618 8.7045 11.21 11.0338 11.21ZM11.0338 11.71C8.9456 11.71 7.28555 12.7055 7.28555 13.8581V15.5009H14.782V13.8581C14.782 12.7055 13.1219 11.71 11.0338 11.71ZM11.0338 6C12.3616 6 13.438 7.0726 13.438 8.39565C13.438 9.71875 12.3616 10.7914 11.0338 10.7914C9.7059 10.7914 8.6295 9.71875 8.6295 8.39565C8.6295 7.0726 9.7059 6 11.0338 6ZM11.0338 6.5C9.98305 6.5 9.1313 7.3487 9.1313 8.39565C9.1313 9.44265 9.98305 10.2914 11.0338 10.2914C12.0845 10.2914 12.9362 9.44265 12.9362 8.39565C12.9362 7.3487 12.0845 6.5 11.0338 6.5Z"
    fill="white"></path>
  </symbol>
  <symbol viewBox="0 0 24 24" stroke-width="1" stroke="currentColor" fill="none"
  stroke-linecap="round" stroke-linejoin="round" id="MapPin">
      <path stroke="none" d="M0 0h24v24H0z" fill="none"></path>
      <path d="M9 11a3 3 0 1 0 6 0a3 3 0 0 0 -6 0"></path>
      <path d="M17.657 16.657l-4.243 4.243a2 2 0 0 1 -2.827 0l-4.244 -4.243a8 8 0 1 1 11.314 0z"></path>
  </symbol>  
  <symbol viewBox="0 0 23 24" fill="none" id="UserLocationMarker">
    <path
      d="M11.0338 0C17.1089 0 22.0338 4.92487 22.0338 11C22.0338 16.3124 18.2679 20.7452 13.2601 21.7745L11.0338 24L8.8079 21.7747C3.79985 20.7455 0.0337524 16.3125 0.0337524 11C0.0337524 4.92487 4.9586 0 11.0338 0Z"
      fill="currentColor"
    />
    <path
      d="M11.0338 11.21C13.363 11.21 15.2838 12.3618 15.2838 13.8581V15.4987C15.2838 15.7756 15.0603 16.0014 14.7829 16.0014H7.28465C7.00725 16.0014 6.78375 15.7756 6.78375 15.4987V13.8581C6.78375 12.3618 8.7045 11.21 11.0338 11.21ZM11.0338 11.71C8.9456 11.71 7.28555 12.7055 7.28555 13.8581V15.5009H14.782V13.8581C14.782 12.7055 13.1219 11.71 11.0338 11.71ZM11.0338 6C12.3616 6 13.438 7.0726 13.438 8.39565C13.438 9.71875 12.3616 10.7914 11.0338 10.7914C9.7059 10.7914 8.6295 9.71875 8.6295 8.39565C8.6295 7.0726 9.7059 6 11.0338 6ZM11.0338 6.5C9.98305 6.5 9.1313 7.3487 9.1313 8.39565C9.1313 9.44265 9.98305 10.2914 11.0338 10.2914C12.0845 10.2914 12.9362 9.44265 12.9362 8.39565C12.9362 7.3487 12.0845 6.5 11.0338 6.5Z"
      fill="white"
    />
  </symbol>
  <symbol viewBox="0 0 24 24" stroke-width="1" stroke="currentColor" fill="none" stroke-linecap="round" stroke-linejoin="round" id="GeolocationFilled">
    <path stroke="none" d="M0 0h24v24H0z" fill="none" />
    <path
      d="M20.891 2.006l.106 -.006l.13 .008l.09 .016l.123 .035l.107 .046l.1 .057l.09 .067l.082 .075l.052 .059l.082 .116l.052 .096c.047 .1 .077 .206 .09 .316l.005 .106c0 .075 -.008 .149 -.024 .22l-.035 .123l-6.532 18.077a1.55 1.55 0 0 1 -1.409 .903a1.547 1.547 0 0 1 -1.329 -.747l-.065 -.127l-3.352 -6.702l-6.67 -3.336a1.55 1.55 0 0 1 -.898 -1.259l-.006 -.149c0 -.56 .301 -1.072 .841 -1.37l.14 -.07l18.017 -6.506l.106 -.03l.108 -.018z"
      stroke-width="0"
      fill="currentColor"
    />
  </symbol>
  <symbol viewBox="0 0 24 24" stroke-width="1" stroke="currentColor" fill="none" stroke-linecap="round" stroke-linejoin="round" id="Geolocation">
    <path stroke="none" d="M0 0h24v24H0z" fill="none" />
    <path d="M21 3l-6.5 18a.55 .55 0 0 1 -1 0l-3.5 -7l-7 -3.5a.55 .55 0 0 1 0 -1l18 -6.5" />
  </symbol>
  <symbol viewBox="0 0 24 24" stroke-width="1" stroke="currentColor" fill="none" stroke-linecap="round" stroke-linejoin="round" id="MapPin">
    <path stroke="none" d="M0 0h24v24H0z" fill="none" />
    <path d="M9 11a3 3 0 1 0 6 0a3 3 0 0 0 -6 0" />
    <path d="M17.657 16.657l-4.243 4.243a2 2 0 0 1 -2.827 0l-4.244 -4.243a8 8 0 1 1 11.314 0z" />
  </symbol>
  <symbol viewBox="0 0 26 24" id="Alert">
    <path stroke="currentColor" fill="none" d="M13.28.58l12.18 22.41c.12.23-.03.51-.28.51H.82c-.25 0-.4-.28-.28-.5L12.72.57c.06-.1.5-.1.56 0zM13 9v6" />
    <circle fill="currentColor" cx="13" cy="18.9" r="1" />
  </symbol>
</svg>
